<svg viewBox="0 0 512 512" xmlns="http://www.w3.org/2000/svg" xmlns:xlink="http://www.w3.org/1999/xlink">
 <text x="-109.95" y="148.92">
  
 </text>
 <text x="471.32" y="68.92">
  
 </text>
 <text x="-600.26" y="-112.34">
  
 </text>
 <text x="497.79" y="-328.81">
  
 </text>
 <text x="1079.06" y="-408.82">
  
 </text>
 <text x="689.94" y="-881.22">
  
 </text>
 <text x="1271.2" y="-961.22">
  
 </text>
 <text x="-561.6" y="453.5">
  
 </text>
 <text x="-990.51" y="-43.58">
  
 </text>
 <text x="-1638.27" y="-811.53">
  
 </text>
 <text x="-931.93" y="-967.16">
  
 </text>
 <text x="-459.24" y="318.14">
  
 </text>
 <text x="122.03" y="238.14">
  
 </text>
 <text x="-949.55" y="56.88">
  
 </text>
 <text x="148.5" y="-159.59">
  
 </text>
 <text x="729.77" y="-239.6">
  
 </text>
 <text x="340.65" y="-712">
  
 </text>
 <text x="921.91" y="-792">
  
 </text>
 <text x="-910.89" y="622.72">
  
 </text>
 <path d="m36.06 512c-5.63 0-10.156-4.527-10.156-10.156v-491.69c0-5.63 4.527-10.156 10.156-10.156h439.88c5.63 0 10.156 4.527 10.156 10.156v334.09l-167.75 167.75h-282.28" opacity=".1"/>
 <path d="m39.06 508.5c-5.553 0-10.03-4.479-10.03-10.03v-484.94c0-5.553 4.479-10.03 10.03-10.03h433.88c5.553 0 10.03 4.479 10.03 10.03v327.84l-167.12 167.13h-276.78" opacity=".1"/>
 <path d="m42.06 505c-5.476 0-9.875-4.399-9.875-9.875v-478.25c0-5.476 4.399-9.875 9.875-9.875h427.88c5.476 0 9.875 4.399 9.875 9.875v321.66l-166.47 166.47h-271.28" opacity=".1"/>
 <path d="m45.06 501.5c-5.399 0-9.719-4.351-9.719-9.75v-471.5c0-5.399 4.32-9.75 9.719-9.75h421.88c5.399 0 9.719 4.351 9.719 9.75v315.44l-165.81 165.81h-265.78" fill="#9bbe22"/>
 <path d="m100.47 50.563v275.38l175.56 175.56h34.813l165.81-165.81v-224.31l-60.813-60.813h-315.37" opacity=".25"/>
 <path id="a" d="m476.66 335.69l-165.81 165.81v-156.06c0-5.399 4.32-9.75 9.719-9.75h156.09" fill="#ffffff" fill-opacity=".196"/>
 <use xlink:href="#a"/>
 <path d="m230.04 394.61c-17.246-.088-26.601 4.26-32.03 7.563-23.597-5.201-46.2-4.799-64.34 10.438 26.617-7.348 50.23-7.967 66.969 1.5 15.649-12.541 47.969-17.09 58.19-16.12-11.476-2.371-20.942-3.335-28.781-3.375m-31.438 34.969c-22.75.255-39.08 9.467-43.75 16.344-22.23-9.765-72.01-.897-83.66 18.656 37.2-14.404 65.56-13.868 87.44 1.375 19.34-22.85 61.07-31.628 74.47-30.09-12.513-4.65-24.16-6.397-34.5-6.281" fill="#ffffff"/>
 <text x="-764.81" y="79.7">
  
 </text>
 <text x="-183.54" y="-.3">
  
 </text>
 <text x="-1255.12" y="-181.56">
  
 </text>
 <text x="-157.07" y="-398.03">
  
 </text>
 <text x="424.2" y="-478.04">
  
 </text>
 <text x="35.08" y="-950.44">
  
 </text>
 <text x="616.34" y="-1030.44">
  
 </text>
 <text x="-1216.46" y="384.28">
  
 </text>
 <text x="-1645.36" y="-112.8">
  
 </text>
 <text x="-2293.13" y="-880.75">
  
 </text>
 <text x="-1586.79" y="-1036.38">
  
 </text>
 <text x="-688.88" y="175.16">
  
 </text>
 <text x="-107.61" y="95.16">
  
 </text>
 <text x="-1179.19" y="-86.11">
  
 </text>
 <text x="-81.14" y="-302.57">
  
 </text>
 <text x="500.13" y="-382.58">
  
 </text>
 <text x="111.01" y="-854.98">
  
 </text>
 <text x="692.27" y="-934.98">
  
 </text>
 <text x="-1140.53" y="479.74">
  
 </text>
 <text x="-693.1" y="148.53">
  
 </text>
 <text x="-111.83" y="68.53">
  
 </text>
 <text x="-1183.41" y="-112.73">
  
 </text>
 <text x="-85.36" y="-329.2">
  
 </text>
 <text x="495.91" y="-409.21">
  
 </text>
 <text x="106.79" y="-881.61">
  
 </text>
 <text x="688.05" y="-961.61">
  
 </text>
 <text x="-1144.75" y="453.11">
  
 </text>
 <text x="-866.06" y="52.09">
  
 </text>
 <text x="-284.79" y="-27.91">
  
 </text>
 <text x="-1356.37" y="-209.18">
  
 </text>
 <text x="-258.32" y="-425.64">
  
 </text>
 <text x="322.95" y="-505.65">
  
 </text>
 <text x="-66.17" y="-978.05">
  
 </text>
 <text x="515.09" y="-1058.06">
  
 </text>
 <text x="-1317.71" y="356.67">
  
 </text>
 <text x="-1746.61" y="-140.41">
  
 </text>
 <text x="-2394.38" y="-908.36">
  
 </text>
 <text x="-1688.04" y="-1063.99">
  
 </text>
 <text x="-790.13" y="147.54">
  
 </text>
 <text x="-208.86" y="67.54">
  
 </text>
 <text x="-1280.44" y="-113.72">
  
 </text>
 <text x="-182.39" y="-330.19">
  
 </text>
 <text x="398.88" y="-410.2">
  
 </text>
 <text x="9.77" y="-882.6">
  
 </text>
 <text x="591.02" y="-962.6">
  
 </text>
 <text x="-1241.78" y="452.12">
  
 </text>
 <text x="-584.73" y="650.24">
  
 </text>
 <text x="-3.46" y="570.24">
  
 </text>
 <text x="-1075.04" y="388.98">
  
 </text>
 <text x="23.01" y="172.51">
  
 </text>
 <text x="604.28" y="92.5">
  
 </text>
 <text x="215.16" y="-379.9">
  
 </text>
 <text x="796.42" y="-459.9">
  
 </text>
 <text x="-1036.38" y="954.82">
  
 </text>
 <text x="-1528.46" y="572.14">
  
 </text>
 <text x="-947.19" y="492.14">
  
 </text>
 <text x="-2018.77" y="310.88">
  
 </text>
 <text x="-920.72" y="94.41">
  
 </text>
 <text x="-339.45" y="14.4">
  
 </text>
 <text x="-728.57" y="-458">
  
 </text>
 <text x="-147.31" y="-538">
  
 </text>
 <text x="-1980.11" y="876.72">
  
 </text>
 <text x="-1281.01" y="646.99">
  
 </text>
 <text x="-699.74" y="566.99">
  
 </text>
 <text x="-1771.32" y="385.72">
  
 </text>
 <text x="-673.27" y="169.26">
  
 </text>
 <text x="-92" y="89.25">
  
 </text>
 <text x="-481.12" y="-383.15">
  
 </text>
 <text x="100.14" y="-463.15">
  
 </text>
 <text x="-1732.66" y="951.57">
  
 </text>
 <text x="-2147.05" y="-35.27">
  
 </text>
 <text x="-1565.78" y="-115.27">
  
 </text>
 <text x="-2637.36" y="-296.53">
  
 </text>
 <text x="-1539.31" y="-513">
  
 </text>
 <text x="-958.04" y="-593.01">
  
 </text>
 <text x="-1347.16" y="-1065.41">
  
 </text>
 <text x="-765.9" y="-1145.41">
  
 </text>
 <text x="-2598.7" y="269.31">
  
 </text>
 <text x="-3027.6" y="-227.77">
  
 </text>
 <text x="-3675.37" y="-995.72">
  
 </text>
 <text x="-2969.03" y="-1151.35">
  
 </text>
 <text x="-2496.34" y="133.95">
  
 </text>
 <text x="-1915.07" y="53.95">
  
 </text>
 <text x="-2986.65" y="-127.31">
  
 </text>
 <text x="-1888.6" y="-343.78">
  
 </text>
 <text x="-1307.33" y="-423.79">
  
 </text>
 <text x="-1696.45" y="-896.19">
  
 </text>
 <text x="-1115.19" y="-976.19">
  
 </text>
 <text x="-2947.99" y="438.53">
  
 </text>
 <path d="m100.46 50.575v275.36h315.39v-275.36zm30.522 30.523h70.69v91.9h-70.69zm101.21 0h153.13v91.9h-153.13zm-101.21 122.42h70.69v91.9h-70.69zm101.21 0h153.13v91.9h-153.13z" fill="#f9f9f9"/>
</svg>
