<svg viewBox="0 0 512 512" xmlns="http://www.w3.org/2000/svg" xmlns:xlink="http://www.w3.org/1999/xlink">
 <text x="-109.95" y="148.92">
  
 </text>
 <text x="471.32" y="68.92">
  
 </text>
 <text x="-600.26" y="-112.34">
  
 </text>
 <text x="497.79" y="-328.81">
  
 </text>
 <text x="1079.06" y="-408.82">
  
 </text>
 <text x="689.94" y="-881.22">
  
 </text>
 <text x="1271.2" y="-961.22">
  
 </text>
 <text x="-561.6" y="453.5">
  
 </text>
 <path d="m36.06 0c-5.63 0-10.156 4.527-10.156 10.156v491.69c0 5.63 4.527 10.156 10.156 10.156h439.88c5.63 0 10.156-4.527 10.156-10.156v-334.09l-167.75-167.75h-282.28" opacity=".1"/>
 <path d="m39.06 3.5c-5.553 0-10.03 4.479-10.03 10.03v484.94c0 5.553 4.479 10.03 10.03 10.03h433.88c5.553 0 10.03-4.479 10.03-10.03v-327.84l-167.12-167.12h-276.78" opacity=".1"/>
 <path d="m42.06 7c-5.476 0-9.875 4.399-9.875 9.875v478.25c0 5.476 4.399 9.875 9.875 9.875h427.88c5.476 0 9.875-4.399 9.875-9.875v-321.66l-166.47-166.47h-271.28" opacity=".1"/>
 <path d="m45.06 10.5c-5.399 0-9.719 4.351-9.719 9.75v471.5c0 5.399 4.32 9.75 9.719 9.75h421.88c5.399 0 9.719-4.351 9.719-9.75v-315.44l-165.81-165.81h-265.78" fill="#9bbe22"/>
 <path id="a" d="m476.66 176.31l-165.81-165.81v156.06c0 5.399 4.32 9.75 9.719 9.75h156.09" fill="#ffffff" fill-opacity=".196"/>
 <use xlink:href="#a"/>
 <path d="m316.59 175.47c6.521 6.555 13.236 13.294 19.844 19.938h-248.87v275.38l30.719 30.719h348.66c5.399 0 9.719-4.351 9.719-9.75v-315.44h-156.09c-1.422 0-2.756-.3-3.969-.844" opacity=".25"/>
 <text x="-990.51" y="-43.58">
  
 </text>
 <text x="-1638.27" y="-811.53">
  
 </text>
 <text x="-931.93" y="-967.16">
  
 </text>
 <g fill="#ffffff">
  <path d="m72.27 108.77c37.2-14.404 65.56-13.86 87.44 1.383 19.34-22.85 61.09-31.632 74.49-30.1-40.04-14.88-71.46.077-78.25 10.08-22.23-9.765-72.03-.918-83.67 18.636"/>
  <path d="m134.75 56.812c26.617-7.348 50.23-7.979 66.97 1.488 15.649-12.541 47.967-17.08 58.19-16.11-36.725-7.588-52.912-.63-60.811 4.174-23.597-5.201-46.2-4.787-64.34 10.45"/>
 </g>
 <text x="-34.02" y="244.38">
  
 </text>
 <text x="547.25" y="164.38">
  
 </text>
 <text x="-524.33" y="-16.88">
  
 </text>
 <text x="573.72" y="-233.35">
  
 </text>
 <text x="1154.99" y="-313.36">
  
 </text>
 <text x="765.87" y="-785.76">
  
 </text>
 <text x="1347.13" y="-865.76">
  
 </text>
 <text x="-485.67" y="548.96">
  
 </text>
 <text x="171.37" y="747.08">
  
 </text>
 <text x="752.64" y="667.08">
  
 </text>
 <text x="-318.94" y="485.81">
  
 </text>
 <text x="779.11" y="269.35">
  
 </text>
 <text x="1360.38" y="189.34">
  
 </text>
 <text x="971.26" y="-283.06">
  
 </text>
 <text x="1552.52" y="-363.06">
  
 </text>
 <text x="-280.28" y="1051.66">
  
 </text>
 <text x="-772.36" y="668.97">
  
 </text>
 <text x="-191.09" y="588.97">
  
 </text>
 <text x="-1262.67" y="407.71">
  
 </text>
 <text x="-164.62" y="191.24">
  
 </text>
 <text x="416.65" y="111.23">
  
 </text>
 <text x="27.54" y="-361.17">
  
 </text>
 <text x="608.79" y="-441.17">
  
 </text>
 <text x="-1224.01" y="973.55">
  
 </text>
 <text x="-524.9" y="743.82">
  
 </text>
 <text x="56.37" y="663.82">
  
 </text>
 <text x="-1015.21" y="482.56">
  
 </text>
 <text x="82.84" y="266.09">
  
 </text>
 <text x="664.11" y="186.08">
  
 </text>
 <text x="274.99" y="-286.32">
  
 </text>
 <text x="856.25" y="-366.32">
  
 </text>
 <text x="-976.55" y="1048.4">
  
 </text>
 <text x="-1390.94" y="61.56">
  
 </text>
 <text x="-809.67" y="-18.44">
  
 </text>
 <text x="-1881.25" y="-199.7">
  
 </text>
 <text x="-783.2" y="-416.17">
  
 </text>
 <text x="-201.93" y="-496.18">
  
 </text>
 <text x="-591.05" y="-968.58">
  
 </text>
 <text x="-9.79" y="-1048.58">
  
 </text>
 <text x="-1842.59" y="366.14">
  
 </text>
 <text x="-2271.5" y="-130.93">
  
 </text>
 <text x="-2919.26" y="-898.88">
  
 </text>
 <text x="-2212.92" y="-1054.51">
  
 </text>
 <text x="-1740.23" y="230.78">
  
 </text>
 <text x="-1158.96" y="150.78">
  
 </text>
 <text x="-2230.54" y="-30.48">
  
 </text>
 <text x="-1132.49" y="-246.95">
  
 </text>
 <text x="-551.22" y="-326.96">
  
 </text>
 <text x="-940.34" y="-799.36">
  
 </text>
 <text x="-359.08" y="-879.36">
  
 </text>
 <text x="-2191.88" y="535.36">
  
 </text>
 <path d="m87.57 195.41v275.36h315.39v-275.36zm30.522 30.523h70.69v91.9h-70.69zm101.21 0h153.13v91.9h-153.13zm-101.21 122.42h70.69v91.9h-70.69zm101.21 0h153.13v91.9h-153.13z" fill="#f9f9f9"/>
</svg>
