<svg viewBox="0 0 512 512" xmlns="http://www.w3.org/2000/svg" xmlns:xlink="http://www.w3.org/1999/xlink">
 <g fill-opacity=".078">
  <path d="m32.563 0c-4.774 0-8.594 3.266-8.594 7.313v497.38c0 4.047 3.82 7.313 8.594 7.313h446.88c4.774 0 8.594-3.266 8.594-7.313v-360.03l-144.66-144.66h-310.81"/>
  <path d="m35.625 3.5c-4.709 0-8.5 3.196-8.5 7.188v490.62c0 3.991 3.791 7.188 8.5 7.188h440.75c4.709 0 8.5-3.196 8.5-7.188v-356.28l-141.53-141.53h-307.72"/>
  <path d="m38.688 7c-4.643 0-8.375 3.158-8.375 7.094v483.82c0 3.936 3.732 7.094 8.375 7.094h434.63c4.643 0 8.375-3.158 8.375-7.094v-352.62l-138.28-138.28h-304.72"/>
 </g>
 <path d="m41.719 10.5c-4.578 0-8.25 3.119-8.25 7v477c0 3.881 3.672 7 8.25 7h428.56c4.578 0 8.25-3.119 8.25-7v-348.06l-135.97-135.94z" fill="#be0000"/>
 <path id="a" d="m478.53 146.44l-135.97-135.94v128.94c0 3.881 3.672 7 8.25 7z" fill="#ffffff" fill-opacity=".196"/>
 <use height="1" width="1" xlink:href="#a"/>
 <path d="m345.03 144.56l133.5 129.38v-127.5h-127.72c-2.185 0-4.154-.71-5.625-1.875h-.156" fill-opacity=".196"/>
 <text x="1454.25" y="140.24">
  
 </text>
 <text x="2035.52" y="60.24">
  
 </text>
 <text x="963.94" y="-121.02">
  
 </text>
 <text x="2061.99" y="-337.49">
  
 </text>
 <text x="2643.26" y="-417.49">
  
 </text>
 <text x="2254.14" y="-889.89">
  
 </text>
 <text x="2835.4" y="-969.9">
  
 </text>
 <text x="1002.6" y="444.82">
  
 </text>
 <text x="72.28" y="131.56">
  
 </text>
 <text x="653.55" y="51.56">
  
 </text>
 <text x="-418.03" y="-129.7">
  
 </text>
 <text x="680.02" y="-346.17">
  
 </text>
 <text x="1261.29" y="-426.18">
  
 </text>
 <text x="872.17" y="-898.58">
  
 </text>
 <text x="1453.43" y="-978.58">
  
 </text>
 <g transform="translate(-657.36 -99.8)">
  <text x="277.99" y="535.94">
   
  </text>
  <text x="-307.18" y="-11.34">
   
  </text>
 </g>
 <text x="-219.16" y="-57.99">
  
 </text>
 <text x="680.45" y="-181.82">
  
 </text>
 <text x="-191.7" y="-234.45">
  
 </text>
 <text x="707.91" y="-358.27">
  
 </text>
 <text x="-3201.68" y="217.43">
  
 </text>
 <text x="-1273.4" y="-18">
  
 </text>
 <text x="-528.02" y="35.14">
  
 </text>
 <text x="371.59" y="-88.67">
  
 </text>
 <text x="-500.56" y="-141.31">
  
 </text>
 <text x="399.06" y="-265.13">
  
 </text>
 <text x="-3510.54" y="310.57">
  
 </text>
 <text x="-1987.97" y="-134.86">
  
 </text>
 <text x="-1242.59" y="-81.71">
  
 </text>
 <text x="-342.98" y="-205.53">
  
 </text>
 <text x="-1215.13" y="-258.17">
  
 </text>
 <text x="-315.51" y="-381.98">
  
 </text>
 <text x="-4225.11" y="193.72">
  
 </text>
 <text x="72.28" y="131.56">
  
 </text>
 <text x="653.55" y="51.56">
  
 </text>
 <text x="-418.03" y="-129.7">
  
 </text>
 <text x="680.02" y="-346.17">
  
 </text>
 <text x="1261.29" y="-426.18">
  
 </text>
 <text x="872.17" y="-898.58">
  
 </text>
 <text x="1453.43" y="-978.58">
  
 </text>
 <g transform="translate(-657.36 -99.8)">
  <text x="277.99" y="535.94">
   
  </text>
  <text x="104.96" y="227.12">
   
  </text>
 </g>
 <text x="28.87" y="47.31">
  
 </text>
 <text x="-1042.71" y="-133.94">
  
 </text>
 <text x="55.34" y="-350.42">
  
 </text>
 <text x="636.61" y="-430.42">
  
 </text>
 <text x="247.49" y="-902.82">
  
 </text>
 <text x="828.76" y="-982.82">
  
 </text>
 <g transform="translate(-657.36 -99.8)">
  <text x="-346.69" y="531.69">
   
  </text>
  <text x="-931.86" y="-15.58">
   
  </text>
 </g>
 <text x="-843.84" y="-62.24">
  
 </text>
 <text x="55.77" y="-186.06">
  
 </text>
 <text x="-816.38" y="-238.7">
  
 </text>
 <text x="83.24" y="-362.51">
  
 </text>
 <text x="-3826.36" y="213.19">
  
 </text>
 <text x="-1898.08" y="-22.24">
  
 </text>
 <text x="-1152.7" y="30.9">
  
 </text>
 <text x="-253.09" y="-92.91">
  
 </text>
 <text x="-1125.24" y="-145.55">
  
 </text>
 <text x="-225.62" y="-269.37">
  
 </text>
 <text x="-4135.22" y="306.33">
  
 </text>
 <text x="-2612.65" y="-139.1">
  
 </text>
 <text x="-1867.27" y="-85.95">
  
 </text>
 <text x="-967.66" y="-209.77">
  
 </text>
 <text x="-1839.81" y="-262.41">
  
 </text>
 <text x="-940.19" y="-386.23">
  
 </text>
 <text x="-4849.79" y="189.47">
  
 </text>
 <g fill-rule="evenodd">
  <path d="m256 164.3c-84.2 0-152.45 68.25-152.45 152.45 0 42.1 17.06 80.21 44.65 107.8l76.955 76.955h245.12c4.578 0 8.25-3.119 8.25-7v-170.82l-114.73-114.73c-27.588-27.588-65.7-44.65-107.8-44.65" opacity=".25"/>
  <path d="m256 164.3c-84.2 0-152.45 68.25-152.45 152.45s68.25 152.45 152.45 152.45 152.45-68.25 152.45-152.45-68.25-152.45-152.45-152.45m52.54 18.16c18.01 7.04 34.887 17.819 49.44 32.369 12.244 12.244 21.85 26.16 28.774 40.993l-89.08 51.42c-1.741-7.57-5.564-14.765-11.461-20.662-6.137-6.137-13.679-10.02-21.588-11.652l43.915-92.48m-52.54 98.63c19.697 0 35.657 15.965 35.657 35.657 0 19.697-15.965 35.657-35.657 35.657-19.697 0-35.657-15.965-35.657-35.657 0-19.697 15.965-35.657 35.657-35.657m0 7.894c-15.338 0-27.768 12.433-27.768 27.768 0 15.338 12.433 27.768 27.768 27.768 15.338 0 27.768-12.433 27.768-27.768 0-15.338-12.433-27.768-27.768-27.768m0 8.166c10.825 0 19.601 8.776 19.601 19.601s-8.776 19.601-19.601 19.601-19.601-8.776-19.601-19.601 8.776-19.601 19.601-19.601m-42.06 29.05c.327 1.419.726 2.832 1.198 4.22.157.463.316.903.49 1.361 1.389 3.67 3.284 7.172 5.717 10.426.303.406.607.8.925 1.198.963 1.197 1.992 2.346 3.103 3.457 1.918 1.918 3.964 3.614 6.127 5.092.432.295.866.593 1.307.871 1.767 1.115 3.592 2.082 5.472 2.912.936.415 1.874.772 2.831 1.116 1.436.516 2.909.975 4.383 1.334.491.12.976.224 1.47.327l-43.915 92.48c-1.133-.443-2.251-.889-3.376-1.361-1.117-.469-2.215-.944-3.321-1.443-2.225-1-4.407-2.064-6.588-3.185-1.078-.553-2.146-1.133-3.213-1.715-.009-.003-.02.003-.027 0-1.074-.586-2.123-1.181-3.185-1.797-2.13-1.236-4.237-2.513-6.316-3.866-1.036-.675-2.054-1.365-3.074-2.069-4.098-2.819-8.07-5.857-11.924-9.15-.956-.817-1.892-1.659-2.831-2.505-.005-.005-.022.005-.027 0-.944-.85-1.877-1.706-2.804-2.586s-1.84-1.785-2.749-2.695c-4.598-4.598-8.81-9.428-12.659-14.456-.64-.837-1.259-1.657-1.879-2.505-5.58-7.629-10.315-15.692-14.212-24.04l89.08-51.42" fill="#ffffff"/>
 </g>
</svg>
