<svg viewBox="0 0 48 48" xmlns="http://www.w3.org/2000/svg">
 <path d="m8 1c-1.031 0-2 .924-2 2v42c0 1.015 1.031 2.091 2 2.091h31.992c.973 0 2-1.076 2-2.091v-31l-13-13" fill="#d35f5f"/>
 <path d="m31.75 9.996l.046.059.12-.059zm-.912 3.853l11.162 11.151v-11" fill-opacity=".196"/>
 <path d="m29 1l12.989 13-11.151-.151c-.897-.012-1.838-.951-1.838-1.849" fill="#de8787"/>
 <path d="m27.959 18.496c0 1.381-1.119 2.5-2.5 2.5-1.381 0-2.5-1.119-2.5-2.5 0-1.381 1.119-2.5 2.5-2.5 1.381 0 2.5 1.119 2.5 2.5z" fill="#f2f2f2"/>
 <path d="m22.746 24.491c0 1.381-1.119 2.5-2.5 2.5-1.381 0-2.5-1.119-2.5-2.5 0-1.381 1.119-2.5 2.5-2.5 1.381 0 2.5 1.119 2.5 2.5z" fill="#f2f2f2"/>
 <path d="m17.636 30.486c0 1.381-1.119 2.5-2.5 2.5-1.381 0-2.5-1.119-2.5-2.5 0-1.381 1.119-2.5 2.5-2.5 1.381 0 2.5 1.119 2.5 2.5z" fill="#f2f2f2"/>
 <path d="m25.819 30.486c0 1.381-1.119 2.5-2.5 2.5-1.381 0-2.5-1.119-2.5-2.5 0-1.381 1.119-2.5 2.5-2.5 1.381 0 2.5 1.119 2.5 2.5z" fill="#f2f2f2"/>
 <path d="m31.24 24.491c0 1.381-1.119 2.5-2.5 2.5-1.381 0-2.5-1.119-2.5-2.5 0-1.381 1.119-2.5 2.5-2.5 1.381 0 2.5 1.119 2.5 2.5z" fill="#f2f2f2"/>
 <path d="m34 30.486c0 1.381-1.119 2.5-2.5 2.5-1.381 0-2.5-1.119-2.5-2.5 0-1.381 1.119-2.5 2.5-2.5 1.381 0 2.5 1.119 2.5 2.5z" fill="#f2f2f2"/>
 <path d="m36.37 36.481c0 1.381-1.119 2.5-2.5 2.5-1.381 0-2.5-1.119-2.5-2.5 0-1.381 1.119-2.5 2.5-2.5 1.381 0 2.5 1.119 2.5 2.5z" fill="#f2f2f2"/>
 <path d="m28.808 36.481c0 1.381-1.119 2.5-2.5 2.5-1.381 0-2.5-1.119-2.5-2.5 0-1.381 1.119-2.5 2.5-2.5 1.381 0 2.5 1.119 2.5 2.5z" fill="#f2f2f2"/>
 <path d="m21.249 36.481c0 1.381-1.119 2.5-2.5 2.5-1.381 0-2.5-1.119-2.5-2.5 0-1.381 1.119-2.5 2.5-2.5 1.381 0 2.5 1.119 2.5 2.5z" fill="#f2f2f2"/>
</svg>
