<svg viewBox="0 0 16 16" xmlns="http://www.w3.org/2000/svg">
 <g fill="#fcfcfc" transform="translate(-473.0004 401.9276)">
  <path d="m481.5-396.93c-.277 0-.5.223-.5.5v2.5h-1.5c-.277 0-.5.223-.5.5 0 .277.223.5.5.5h2c .277 0 .5-.223.5-.5v-3c0-.277-.223-.5-.5-.5z" opacity=".4"/>
  <path d="m8 1c-3.854 0-7 3.146-7 7 0 3.854 3.146 7 7 7 3.854 0 7-3.146 7-7 0-.695-.107-1.366-.297-2h-2.123c.266.612.42 1.287.42 2 0 2.773-2.227 5-5 5-2.773 0-5-2.227-5-5 0-2.773 2.227-5 5-5 .713 0 1.388.152 2 .418v-2.121c-.635-.19-1.305-.297-2-.297" opacity=".4" transform="translate(473.0004 -401.9276)"/>
  <path d="m484-401.93h1.5l1 1 1-1h1.5v1.5l-1 1 1 1v1.5h-1.5l-1-1-1 1h-1.5v-1.5l1-1-1-1z"/>
 </g>
</svg>
