<svg viewBox="0 0 24 24" xmlns="http://www.w3.org/2000/svg">
 <path d="m21 12a9 9 0 0 1 -18 0 9 9 0 1 1 18 0z" fill="#ffffff" fill-rule="evenodd"/>
 <path d="m11.984 5.484c-.551.008-.992.465-.984 1.016v5.5c0 .234.082.461.234.641l2.5 3c .223.301.59.449.957.395.367-.059.672-.313.793-.664.121-.352.035-.742-.219-1.012l-2.266-2.719v-5.141c.004-.27-.102-.531-.293-.723-.191-.191-.453-.297-.723-.293z" fill="#268bd2"/>
 <path d="m12 2c-5.512 0-10 4.488-10 10 0 5.512 4.488 10 10 10 5.512 0 10-4.488 10-10 0-5.512-4.488-10-10-10zm0 2c4.43 0 8 3.57 8 8 0 4.43-3.57 8-8 8-4.43 0-8-3.57-8-8 0-4.43 3.57-8 8-8z" fill="#fdfdfd"/>
 <path d="m11 18a5 5 0 0 1 -10 0 5 5 0 1 1 10 0" fill="#dc322f" fill-rule="evenodd"/>
 <path d="m5 14.5h2v3.5h-2z" fill="#ffffff" fill-opacity=".9"/>
 <path d="m5 20c0-.552.448-1 1-1 .552 0 1 .448 1 1 0 .552-.448 1-1 1-.552 0-1-.448-1-1" fill="#ffffff" fill-opacity=".9" fill-rule="evenodd"/>
</svg>
