<svg viewBox="0 0 24 24" xmlns="http://www.w3.org/2000/svg">
 <path d="m6.786 4.908c-.034.002-.07.006-.103.011-.031.005-.061.015-.092.023-.004.001-.008-.001-.011 0-.034.009-.07.022-.103.034-.66.22-1.622 1.064-1.942 1.791-.137.298-.255.63-.356 1.033-.188.746-.24 1.743-.092 2.916.121.99.399 2.146.942 3.387.337.897 1.01 2 2.263 3.1.147.109.29.213.437.31 1.178.781 2.233 1.128 3.056 1.263 1.35.301 2.562.361 3.596.298 1.229-.07 2.252-.307 2.987-.643.31-.168.719-.419.942-.62.657-.593 1.176-1.11 1.459-1.561.011-.016.024-.03.034-.046.032-.053.056-.098.08-.149.012-.024.024-.045.034-.069.018-.043.034-.085.046-.126.003-.025.009-.026.011-.046.004-.015.009-.032.011-.046.005-.032.009-.089.011-.103.006-.027 0-.023 0-.023 0 0 .002-.007 0-.034-.002-.028 0-.078 0-.184-.009-.071-.025-.148-.046-.218-.042-.139-.106-.276-.195-.413-.173-.268-.428-.532-.758-.792-.612-.482-1.469-.949-2.47-1.401-.852-.385-1.79-.737-2.7-1.125-.636-.31-1.138-.472-1.321-.62-.023-.018-.033-.039-.046-.057-.166-.033-.432-.482-.896-1.045-.536-.725-1.047-1.491-1.562-2.193-.602-.822-1.183-1.515-1.735-1.986-.298-.254-.585-.44-.862-.551-.142-.057-.278-.101-.414-.115-.069-.007-.14-.004-.207 0z" fill="#fdfdfd" opacity=".4"/>
 <path d="m19.566 14.557l-1.777 3.627c.2-.124.39-.254.52-.371.657-.593 1.176-1.111 1.459-1.563.011-.016.025-.029.035-.045.032-.053.056-.099.08-.15.012-.024.025-.044.035-.068.018-.043.033-.085.045-.127.003-.025.009-.025.012-.045.004-.015.009-.032.012-.047.005-.032.009-.089.012-.104.006-.027 0-.021 0-.021 0 0 .002-.007 0-.035-.002-.028 0-.078 0-.184-.009-.071-.026-.148-.047-.219-.042-.139-.106-.274-.195-.412-.051-.079-.124-.158-.189-.236z" fill="#fdfdfd"/>
</svg>
