<svg height="512" viewBox="0 0 512 512" width="512" xmlns="http://www.w3.org/2000/svg">
 <linearGradient id="a" gradientTransform="translate(-.00949 .185)" gradientUnits="userSpaceOnUse" x2="0" y1="450.91" y2="77.05">
  <stop offset="0" stop-color="#628aba"/>
  <stop offset=".082" stop-color="#6c9ace"/>
  <stop offset=".49" stop-color="#77a1d1"/>
  <stop offset=".511" stop-color="#6c99c7"/>
  <stop offset="1" stop-color="#6494c7"/>
 </linearGradient>
 <path d="m108.62051 57.565c-7.963 0-15.222 2.323-20.688 6.25-4.545 3.266-7.749 7.867-8.75 13.13h-11.906c-16.447 0-29.875 13.02-29.875 29.19v12.531h-.031c-19.928 0-38.08 15.84-36.25 35.87499l24.25 265.41001c1.733 18.966 16.29 34.938 36.22 34.938h383.41c19.933 0 34.09-16.04 36.19-34.844l29.656-265.41001c1.123-10.05-3.135-19.28699-9.969-25.68799-6.833-6.399-16.257-10.281-26.22-10.281h-.031v-12.531c0-16.17-13.428-29.19-29.875-29.19h-262.91c-1-5.256-4.205-9.857-8.75-13.12-5.465-3.927-12.756-6.25-20.719-6.25h-43.75" fill="url(#a)" fill-rule="evenodd"/>
 <path d="m108.02051 63.435l369.56 369.59c1.839-4.047 3.084-8.438 3.594-13l1.656-14.688-341.94-341.91h-32.875m-23.594 9.375c-1.663 2.635-2.343 5.704-3 9.156h-14.281c-2.023 0-3.996.216-5.906.594l372.31 372.31h11.438c6.338 0 12.09-1.621 17.06-4.438l-377.62-377.62m107.97 9.156l293.72 293.75 3.313-29.625-264.12-264.12h-32.906m65.844 0l234.5 234.53 3.313-29.656-204.91-204.87h-32.906m65.875 0l175.25 175.25 3.313-29.594-145.69-145.66h-32.875m65.844 0l116.03 116.03 3.313-29.625-86.41-86.41h-32.938m68.969 3.125l13.281 13.25c-2.664-5.827-7.372-10.43-13.281-13.25m-417.22 10.844c-2.471 3.95-3.996 8.54-4.313 13.438v9.281h-.031c-1.858 0-3.688.14-5.5.406l335.84 335.81h32.906l-358.91-358.94m-3.813 4.906c-.097.517-.181 1.036-.25 1.563.069-.527.158-1.047.25-1.563m-.25 1.563c-.055.425-.12.851-.156 1.281.041-.431.101-.857.156-1.281m-27.625 27.719c-6.073 6.278-9.666 14.67599-8.938 23.99999l300.78 300.75001h32.906l-324.75-324.75m-5.625 60.22l3.313 36.22 228.31 228.31h32.875l-264.5-264.53m6.625 72.47l3.313 36.25 155.81 155.81h32.875l-192-192.06m6.625 72.53l3.313 36.22 83.28 83.31h32.938l-119.53-119.53m6.625 72.47l1.094 12.13c1.733 18.966 16.29 34.938 36.22 34.938h9.75l-47.06-47.06" fill="#ffffff" fill-rule="evenodd" opacity=".2"/>
 <path d="m108.54051 57.111c-7.963 0-15.11 2.403-20.572 6.33-4.545 3.266-7.702 7.931-8.703 13.187h-12.13c-17.677 0-29.802 12.771-29.802 30.661v3.956c0-16.17 13.355-29.27 29.802-29.27h14.286c1-5.256 2-9.657 6.549-12.923 5.465-3.927 12.609-6.33 20.572-6.33h43.78c7.963 0 15.371 2.403 20.835 6.33 4.545 3.266 5.766 7.668 6.769 12.923h264.88c16.447 0 29.802 11.455 29.802 27.625v-3.956c0-16.17-13.355-29.01-29.802-29.01h-262.95c-1-5.256-4.159-9.921-8.703-13.187-5.465-3.927-12.872-6.33-20.835-6.33z" fill="#ffffff" fill-rule="evenodd" opacity=".764"/>
</svg>
