<svg viewBox="0 0 24 24" xmlns="http://www.w3.org/2000/svg">
 <path d="m8 3c-.554 0-1 .446-1 1v1h-.25c-.9695 0-1.75.7805-1.75 1.75v.25h-1c-.554 0-1 .446-1 1 0 .554.446 1 1 1h1v2h-1c-.554 0-1 .446-1 1 0 .554.446 1 1 1h1v2h-1c-.554 0-1 .446-1 1 0 .554.446 1 1 1h1v .25c0 .9695.7805 1.75 1.75 1.75h.25v1c0 .554.446 1 1 1 .554 0 1-.446 1-1v-1h2v1c0 .554.446 1 1 1 .554 0 1-.446 1-1v-1h2v1c0 .554.446 1 1 1 .554 0 1-.446 1-1v-1h .25c.9695 0 1.75-.7805 1.75-1.75v-.25h1c .554 0 1-.446 1-1 0-.554-.446-1-1-1h-1v-2h1c .554 0 1-.446 1-1 0-.554-.446-1-1-1h-1v-2h1c .554 0 1-.446 1-1 0-.554-.446-1-1-1h-1v-.25c0-.9695-.7805-1.75-1.75-1.75h-.25v-1c0-.554-.446-1-1-1-.554 0-1 .446-1 1v1h-2v-1c0-.554-.446-1-1-1-.554 0-1 .446-1 1v1h-2v-1c0-.554-.446-1-1-1zm-.15625 4h8.3125c.461667 0 .84375.3820833.84375.84375v8.3125c0 .461667-.382083.84375-.84375.84375h-8.3125c-.4616667 0-.84375-.382083-.84375-.84375v-8.3125c0-.4616667.3820833-.84375.84375-.84375z" fill="#fdfdfd" fill-rule="evenodd"/>
 <path d="m8.6 14h6.8c.3324 0 .6.2676.6.6v.8c0 .3324-.2676.6-.6.6h-6.8c-.3324 0-.6-.2676-.6-.6v-.8c0-.3324.2676-.6.6-.6z" fill="#fdfdfd" fill-rule="evenodd"/>
</svg>
