<svg viewBox="0 0 15.27 24" xmlns="http://www.w3.org/2000/svg">
 <path d="m7.658 3c-2.323-.02-4.508 1.735-4.937 3.937-.429 2.202.734 4.267 2.906 5.062v6c0 2 1.13 3.02 2 3 .87-.017 2-1 2-3l2-1-3-1 3-2-2-1v-1c2.186-.758 3.326-2.759 2.938-4.969-.389-2.209-2.584-4.01-4.907-4.03zm0 2.969c.585 0 1.031.447 1.031 1.031 0 .585-.447 1.031-1.031 1.031-.584 0-1.031-.447-1.031-1.031 0-.585.447-1.031 1.031-1.031zm0 1c .022 0-.031.053-.031.031 0-.022.053.031.031.031-.022 0 .031-.053.031-.031 0 .022-.053-.031-.031-.031z" fill="#ef555c"/>
</svg>
