<svg xmlns="http://www.w3.org/2000/svg" height="16" viewBox="0 0 4.5133333 4.5133333" width="16"><path d="M2.257.376C1.744.84.88 1.143.585 1.212c0 1.253.627 2.716 1.672 2.925 1.044-.21 1.67-1.672 1.67-2.925-.293-.07-1.157-.373-1.67-.836m.03 1.045c.274.01.523.155.67.38l.29-.096-.33.657-.655-.328.266-.088c-.07-.062-.16-.102-.257-.106-.153-.005-.298.074-.376.21l-.362-.21c.155-.268.446-.428.755-.417m-.692.732l.657.328-.266.09c.07.06.16.1.256.104.155.006.3-.074.377-.21l.36.21c-.153.268-.444.43-.754.418-.273-.01-.522-.154-.67-.38l-.29.097z" fill="#fefefe" fill-rule="evenodd"/></svg>