<svg viewBox="0 0 24 24" xmlns="http://www.w3.org/2000/svg">
 <g fill="#fdfdfd" transform="translate(-177.0002 -525.36047)">
  <path d="m195 545.36h-12l6-6z"/>
  <path d="m-187.59-538.36a2 2 0 0 1 .434 2.18 2 2 0 0 1 -1.848 1.235 2 2 0 0 1 -1.848-1.235 2 2 0 0 1 .434-2.18l1.414 1.414z" transform="scale(-1)"/>
  <path d="m193.24 541.1c1.714-1.714 2.228-4.3 1.301-6.539-.928-2.239-3.119-3.703-5.543-3.703-2.424 0-4.615 1.464-5.543 3.703-.928 2.239-.413 4.825 1.301 6.539l1.414-1.414c-1.146-1.146-1.487-2.862-.867-4.359.62-1.497 2.075-2.469 3.695-2.469 1.621 0 3.075.971 3.695 2.469.62 1.497.279 3.213-.867 4.359z"/>
 </g>
</svg>
