<svg viewBox="0 0 24 24" xmlns="http://www.w3.org/2000/svg">
 <path d="m21 21v-16l-16 16" fill="#fdfdfd" fill-rule="evenodd"/>
 <path d="m3 11.06v4.469c0 .521.068 1 .205 1.437.145.427.364.799.654 1.115.299.308.674.551 1.127.73.426.161.936.248 1.514.248.578 0 1.088-.087 1.514-.248.453-.179.828-.423 1.127-.73.291-.316.509-.688.654-1.115.137-.436.205-.916.205-1.437v-4.469h-2v4.303c0 .359-.038.667-.115.924-.085.248-.197.453-.334.615-.145.154-.315.264-.512.332-.167.056-.349.094-.539.094-.19 0-.372-.038-.539-.094-.197-.068-.366-.178-.512-.332-.137-.162-.249-.367-.334-.615-.077-.256-.115-.565-.115-.924v-4.303z" fill="#fdfdfd" transform="translate(0 -7.056641)"/>
</svg>
