<svg viewBox="0 0 24 24" xmlns="http://www.w3.org/2000/svg">
 <path d="m8 4l-4 4h7v-4zm5 0v4h7l-4-4zm-9 6v10h9.602c-.059-.179-.102-.372-.102-.609v-.779c0-.718.335-1.146.68-1.455-.085-.512-.071-1.248.578-1.842l-.025.021.561-.529.002-.002c.651-.612 1.292-.584 1.74-.494.295-.382.763-.811 1.57-.811h.789c.231 0 .426.041.605.1v-3.6z" fill="#fdfdfd"/>
 <path d="m37.1 30c-.103 0-.186.152-.186.34v.998c-1.133.185-2.169.657-3.039 1.334-.021-.029-.029-.058-.059-.086l-.77-.73c-.141-.133-.311-.185-.383-.117l-1.277 1.209c-.074.067-.018.229.123.361l.77.73c.06.057.126.091.188.115-.568.814-.959 1.758-1.123 2.775h-.986c-.198 0-.357.08-.357.184v1.777c0 .101.16.184.357.184h.988c.164 1.016.552 1.959 1.119 2.771-.061.024-.126.058-.186.115l-.77.73c-.141.133-.197.294-.123.361l1.277 1.209c.072.067.242.015.383-.117l.77-.73c.029-.028.037-.057.059-.086.87.677 1.908 1.141 3.039 1.326v1.01c0 .187.082.34.186.34h1.801c.103 0 .186-.152.186-.34v-1.01c1.131-.185 2.169-.65 3.039-1.326.021.029.029.058.059.086l.77.73c.141.133.311.185.383.117l1.277-1.209c.074-.067.018-.229-.123-.361l-.77-.73c-.059-.057-.124-.091-.186-.115.567-.813.955-1.755 1.119-2.771h.988c.198 0 .357-.083.357-.184v-1.777c0-.103-.16-.184-.357-.184h-.988c-.165-1.017-.565-1.953-1.133-2.766.065-.023.135-.064.199-.125l.77-.73c.141-.133.197-.294.123-.361l-1.277-1.209c-.072-.067-.242-.015-.383.117l-.77.73c-.035.033-.045.067-.068.102-.869-.675-1.899-1.151-3.03-1.336v-1.012c0-.187-.082-.34-.186-.34h-1.801zm.689 3.918h.006.004c-.012.001.057.002.201.002 2.271 0 4.084 1.811 4.084 4.082 0 2.271-1.813 4.082-4.084 4.082-2.271 0-4.084-1.811-4.084-4.082 0-2.199 1.709-3.974 3.873-4.084zm.211 2.678c-.819 0-1.484.629-1.484 1.406 0 .775.665 1.404 1.484 1.404.819 0 1.484-.63 1.484-1.404 0-.777-.665-1.406-1.484-1.406z" fill="#d48139" transform="matrix(.4375 0 0 .4375 2.374981 2.37500131)"/>
</svg>
