<svg viewBox="0 0 24 24" xmlns="http://www.w3.org/2000/svg">
 <path d="m8 4l-4 4h7v-4zm5 0v4h7l-4-4zm-9 6v10h8.832l.305-1.025-.285-.111.756-1.881c.06-.149.168-.263.24-.404l.297-1 .227.123c1.059-1.369 2.71-2.199 4.492-2.199.387 0 .768.04 1.137.117v-3.617h-16" fill="#fdfdfd"/>
 <path d="m-25.406 14.5c2.304 0 4.367 1.303 5.281 3.313l1.219-.469-1 3.469-3.313-1.844 1.281-.5c-.621-1.31-1.954-2.125-3.469-2.125-1.573 0-2.996.94-3.563 2.344l-1.781-.688c.845-2.104 2.985-3.5 5.344-3.5zm-5.5 4.719l3.313 1.781-1.281.5c.613 1.305 1.964 2.156 3.469 2.156 1.576 0 2.979-.91 3.563-2.313l1.781.688c-.877 2.103-2.979 3.469-5.344 3.469-2.292 0-4.387-1.339-5.281-3.344l-1.219.438z" fill="#3370d0" transform="matrix(.63636364 0 0 .63636364 35.03124955 6.2727272)"/>
</svg>
