<svg viewBox="0 0 24 24" xmlns="http://www.w3.org/2000/svg">
 <path d="m8 4l-4 4h7v-4zm5 0v4h7l-4-4zm-9 6v10h9.604c-.313-1.723.189-3.57 1.508-4.889 1.065-1.066 2.484-1.611 3.889-1.611.334 0 .669.032 1 .094v-3.594h-16" fill="#fdfdfd"/>
 <path d="m24.5 21c-1.152 0-2.303.439-3.182 1.318-1.758 1.757-1.758 4.606 0 6.363 1.757 1.758 4.606 1.758 6.363 0 1.758-1.757 1.758-4.606 0-6.363-.878-.879-2.03-1.318-3.182-1.318m0 1.35c.592 0 1.181.169 1.697.5l-4.348 4.348c-.783-1.219-.643-2.858.424-3.924.615-.615 1.42-.924 2.227-.924m2.65 1.453c.783 1.219.643 2.858-.424 3.924-1.066 1.067-2.705 1.206-3.924.424z" fill="#ee545b" transform="matrix(.77777777 0 0 .77777777 -.05557358 -.83333327)"/>
</svg>
