<svg viewBox="0 0 24 24" xmlns="http://www.w3.org/2000/svg">
 <path d="m15.365 4.295c-1.558-.025-3.391.387-5.242 1.289-2.564 1.253-4.48 3.205-5.353 5.328-.24-.107-.505-.254-.773-.43-1.264-.831-1.948-2.063-1.948-2.063 0 0-.326 2.456.716 3.953.537.77 1.099 1.26 1.518 1.547.057.677.226 1.354.544 2.01 1.801 3.692 6.957 4.884 11.512 2.661 3.133-1.525 3.871-3.917 3.781-6.929.204-.14.372-.276.516-.43.082.025.175.05.229.086.544.347.688 1.031.688 1.031 0 0 .802-1.683.258-3.122-.387-1.013-1.361-1.461-2.12-1.576-.025-.154-.032-.301-.057-.458-.297-1.851-1.991-2.854-4.268-2.893m-8.304.888c0 0-.938.691-1.318 1.719-.004 0 .458.859.458.859 0 0 .111-.165.745-.544-.118-1.053.115-2.034.115-2.034m8.347.193c.766 0 1.171.534 1.171 1.221 0 .688-.451 1.132-1.171 1.132-.723 0-1.235-.312-1.235-1.178 0-.863.469-1.175 1.235-1.175zm-10.982.58c0 0-.97 1.4-1 2.979 0 .011 1.06.945 1.06.945 0 0 .086-.329.802-1.175-.688-1.346-.859-2.75-.859-2.75m13.575 1.432c.036 0 .032 0 .057 0-.218.064-.677.315-.974 1.174-.261.756-.172 1.318-.172 1.318 0 0-1.046.645-1.089 1.919-.029.616.201 1.289 1.633 1.203.487.043 2.177-.802 2.177-.802 0 0-2.134 1.891-3.767 1.475-1.246-.315-1.25-1.26-1.289-1.69-.086-1 1.117-2.091 1.117-2.091 0 0-.097-1.171.362-1.715.892-1.11 1.626-.745 1.944-.791z" fill="#54cdee"/>
</svg>
