<svg height="24" viewBox="0 0 6.77 6.77" width="24" xmlns="http://www.w3.org/2000/svg">
 <path d="m2.489 1.839c-.495.465-.497 1.224-.002 1.689l.235-.223c-.367-.344-.366-.898.002-1.245m1.325-.003c.368.346.37.904.002 1.25l.235.222c.495-.465.493-1.227-.001-1.693m-.236.222" fill="#fdfdfd" opacity=".4"/>
 <path d="m1.791 1.132c-.881.854-.883 2.244-.004 3.097l.419-.406c-.653-.634-.65-1.65.003-2.285m2.355-.003c.653.633.658 1.657.004 2.292l.419.406c.88-.854.875-2.251-.004-3.104l-.419.407m0-.001" fill="#fdfdfd" opacity=".4"/>
 <path d="m3.387 2.54c.156 0 .282.126.282.282v2.54c0 .156-.126.282-.282.282-.156 0-.282-.126-.282-.282v-2.54c0-.156.126-.282.282-.282" fill="#fdfdfd"/>
</svg>
