<svg viewBox="0 0 24 24" xmlns="http://www.w3.org/2000/svg">
 <path d="m12 4c-4.418 0-8 3.582-8 8 0 .361.016.714.063 1.063.017.128.04.249.063.375.013.071.017.149.031.219.048.229.152.435.219.656.006.019-.006.043 0 .063.01.032.021.062.031.094.071.218.13.447.219.656.005.012.026.019.031.031.047.108.105.207.156.313.051.105.07.21.125.313.007.012.025.019.031.031.107.196.222.408.344.594.016.024.046.039.063.063.123.183.237.359.375.531.102.127.204.255.313.375.039.043.085.082.125.125.05.053.105.105.156.156.151.151.306.299.469.438.102.087.206.168.313.25.041.031.083.063.125.094.091.068.187.124.281.188.104.07.205.154.313.219.111.068.229.125.344.188.163.089.33.172.5.25.106.048.204.113.313.156.04.016.085.016.125.031.161.062.334.105.5.156.201.062.387.141.594.188.053.012.103.02.156.031.174.035.354.07.531.094.092.013.189.022.281.031.02.002.042-.002.063 0 .249.023.495.031.75.031.404 0 .8-.036 1.188-.094.02-.003.043.003.063 0 .021-.003.042.003.063 0 .312-.051.607-.164.906-.25.124-.036.254-.052.375-.094.266-.091.529-.195.781-.313.107-.05.208-.102.313-.156.193-.1.379-.198.563-.313.095-.06.189-.124.281-.188.043-.03.082-.063.125-.094.242-.174.467-.363.688-.563.027-.025.067-.038.094-.063.074-.069.148-.147.219-.219.208-.208.41-.427.594-.656.139-.173.251-.347.375-.531.008-.012.023-.019.031-.031.136-.205.258-.407.375-.625.123-.227.243-.448.344-.688.018-.043.045-.082.063-.125.372-.923.563-1.944.563-3 0-4.418-3.582-8-8-8m0 1c3.866 0 7 3.134 7 7 0 .775-.143 1.522-.375 2.219-2.933-2.866-6.071-5-8.969-4.969-1.673.019-3.259.782-4.656 2.5.132-3.75 3.218-6.75 7-6.75" fill="#fdfdfd"/>
</svg>
