<svg viewBox="0 0 24 24" xmlns="http://www.w3.org/2000/svg">
 <path d="m12 3a9 9 0 0 0 -9 9 9 9 0 0 0 1.572 5.07l-1.572 3.93 3.924-1.568a9 9 0 0 0 5.076 1.568 9 9 0 0 0 9-9 9 9 0 0 0 -9-9m-3.662 4.217c.172 0 .345-.001.496.008.186.009.389.016.582.447.23.512.734 1.793.799 1.922.065.129.107.28.021.456-.086.17-.129.277-.259.429-.129.151-.271.337-.387.453-.13.128-.266.268-.115.527.151.259.669 1.107 1.439 1.793.989.878 1.824 1.154 2.082 1.283.259.129.41.109.561-.064.151-.173.648-.757.82-1.016.173-.259.343-.215.58-.129.237.086 1.511.714 1.77.842.259.129.433.195.496.303.065.108.065.629-.153 1.228-.214.604-1.271 1.188-1.746 1.231-.475.043-.918.22-3.105-.647-2.631-1.037-4.291-3.733-4.42-3.906-.129-.173-1.059-1.404-1.059-2.678 0-1.273.669-1.899.906-2.158.237-.259.52-.324.692-.324" fill="#fdfdfd"/>
</svg>
