<svg viewBox="0 0 16 16" xmlns="http://www.w3.org/2000/svg">
 <path d="m7.1564428 15.043743c-1.4557533-.059163-2.4417932-.170316-3.2028366-.362146-.8721971-.219618-1.4942986-.553079-1.750669-.937634-.1774871-.265335-.2070683-.40338-.1963115-.905364.0098604-.423101.0098604-.426686.1102572-.635548.2456135-.510051.6982954-.943012 1.5373257-1.468303.4150331-.259955 1.2675094-.679471 1.8770613-.9232914.6059663-.2429243.7413227-.3388391.8739898-.6238943.06723-.143424.081572-.2106539.081572-.3854519 0-.3352536-.061852-.5046731-.2662307-.7359443-.8641291-.9725938-1.4172078-2.4149012-1.4172078-3.6931674 0-1.414519.6068627-2.51978 1.6744749-3.0504487.4508892-.2240999.8470979-.3218075 1.3930054-.34332112 1.4960914-.05826599 2.7295375.77807502 3.1499495 2.13612082.222307.7162235.227685 1.6753713.01434 2.51978-.207068.8202059-.674989 1.7524617-1.1572522 2.3073332-.2518884.2895372-.2751948.331668-.327186.5772815-.061852.2940192-.045716.5916239.043027.7789715.098604.2088612.2267892.3029831.603277.4392359 1.974769.7135342 3.369567 1.6583402 3.715578 2.5161942.05916.14701.06454.203483.06454.650787 0 .475988-.0018.494812-.07709.654371-.320015.682161-1.323086 1.121397-3.079134 1.348186-.773593.0995-2.7636003.174798-3.6644822.138045z" fill="#fdfdfd"/>
</svg>
