<svg height="24" viewBox="0 0 6.77 6.77" width="24" xmlns="http://www.w3.org/2000/svg">
 <g fill="#fdfdfd" transform="matrix(.38108407 0 0 .38183495 -9.0883988 1.99099)">
  <path d="m37.87 6.632c.797-1.381.969-2.946.615-4.381l-4.37.002c.023.023.048.047.071.071.002.002.006.002.008.004.008.009.018.016.026.025.033.038.061.084.091.124.01.013.02.025.029.037.008.011.014.022.022.033.002.002.006.002.008.004.011.016.022.033.033.049.013.02.024.041.036.061.003.006.008.011.011.016.007.012.015.021.022.033.01.018.019.038.028.057.005.01.009.019.014.029.009.019.019.038.028.057.004.009.01.019.014.029.001.002-.005.006-.004.008.012.027.024.053.035.081.001.002-.005.006-.004.008.003.01.011.019.014.029.005.014.013.026.017.041.003.008.004.016.007.024.009.027.015.056.023.084.007.026.021.05.027.077.002.01 0 .021.002.032.006.027.01.052.015.08.005.027.012.053.015.08.001.011.001.021.002.032.001.013-.003.027-.002.039.001.011 0 .021.002.032.004.023.011.044.012.068 0 .006-.001.013-.001.02 0 .004.003.008.003.012 0 .003-.004.005-.004.008 0 .01.002.021.002.032 0 .007-.001.013-.001.02 0 .039-.004.079-.007.118-.001.019-.002.04-.004.059-.002.016-.005.031-.007.047-.004.029-.004.057-.009.086-.006.033-.011.069-.018.102-.006.026-.017.052-.024.078-.01.038-.022.076-.034.113-.005.015-.009.028-.014.043-.009.026-.014.052-.024.078-.003.008-.01.015-.013.023-.014.033-.03.064-.045.096-.006.013-.008.029-.014.043-.015.028-.033.057-.048.084-.009.015-.017.031-.026.046l-2.752 4.766c2.396.443 4.912-.606 6.2-2.836z"/>
  <path d="m32.738-2.258c-1.594 0-3.036.634-4.101 1.658l2.187 3.784c.008-.031.017-.065.026-.097.001-.003-.001-.006 0-.009.004-.012.005-.024.009-.035.016-.048.042-.094.062-.141.006-.014.011-.03.018-.044.006-.012.012-.023.018-.035.001-.002-.001-.006 0-.009.009-.018.017-.035.026-.053.011-.021.024-.041.035-.062.003-.006.006-.012.009-.018.007-.012.011-.024.018-.035.011-.018.024-.035.035-.053.006-.009.012-.018.018-.026.012-.018.023-.036.035-.053.006-.008.012-.018.018-.026.001-.001.008.001.009 0 .018-.024.034-.048.053-.071.001-.002.007.001.009 0 .007-.007.011-.019.018-.026.01-.011.017-.024.026-.035.006-.006.012-.011.018-.018.019-.021.041-.041.062-.062.019-.019.033-.043.053-.062.008-.007.019-.011.026-.018.021-.019.04-.035.062-.053.021-.017.04-.036.062-.053.009-.006.018-.011.026-.018.01-.007.025-.01.035-.018.009-.006.018-.011.026-.018.018-.015.033-.032.053-.044.005-.003.012-.005.018-.009.003-.002.005-.007.009-.009.002-.001.007.001.009 0 .009-.005.017-.012.026-.018.006-.003.012-.006.018-.009.034-.019.071-.036.106-.053.017-.008.035-.018.053-.026.014-.006.03-.012.044-.018.027-.011.052-.025.079-.035.032-.012.065-.025.097-.035.025-.008.054-.011.079-.018.038-.01.076-.019.115-.026.015-.003.029-.006.044-.009.027-.005.052-.014.079-.018.009-.001.018.001.026 0 .035-.005.07-.006.106-.009.015-.001.029-.008.044-.009.032-.002.065 0 .097 0 .017 0 .036 0 .053 0h5.503c-.814-2.296-2.981-3.951-5.556-3.951z"/>
  <path d="m28.24-.176c-.888 1.036-1.429 2.373-1.429 3.845 0 2.701 1.806 4.983 4.277 5.697l2.187-3.792c-.046.013-.095.017-.141.026-.017.004-.035.006-.053.009-.061.011-.122.021-.185.026-.006 0-.012 0-.018 0-.029.002-.059.008-.088.009-.018 0-.035 0-.053 0-.012 0-.023 0-.035 0-.029-.001-.059-.007-.088-.009-.006 0-.012 0-.018 0-.03-.002-.059-.005-.088-.009-.032-.004-.065-.004-.097-.009-.015-.002-.029-.006-.044-.009-.009-.002-.017-.007-.026-.009-.035-.007-.071-.017-.106-.026-.003-.001-.006.001-.009 0-.024-.006-.047-.011-.071-.018-.003-.001-.006.001-.009 0-.009-.003-.017-.006-.026-.009-.021-.007-.04-.019-.062-.026-.002-.001-.006.001-.009 0-.028-.01-.052-.024-.079-.035-.032-.014-.065-.028-.097-.044-.026-.013-.054-.021-.079-.035-.015-.008-.029-.018-.044-.026-.012-.007-.024-.011-.035-.018-.018-.011-.035-.024-.053-.035-.009-.006-.018-.012-.026-.018-.018-.012-.036-.023-.053-.035-.006-.005-.011-.013-.018-.018-.027-.02-.053-.04-.079-.062-.02-.017-.042-.035-.062-.053-.008-.007-.019-.01-.026-.018-.02-.018-.034-.042-.053-.062-.027-.027-.054-.051-.079-.079-.017-.019-.036-.042-.053-.062-.017-.021-.036-.04-.053-.062-.004-.005-.005-.012-.009-.018-.017-.024-.036-.046-.053-.071-.006-.009-.012-.017-.018-.026-.012-.018-.024-.035-.035-.053-.007-.012-.011-.024-.018-.035-.009-.015-.019-.029-.026-.044-.001-.002.001-.006 0-.009l-.018-.035-2.743-4.745z"/>
  <circle cx=".5" cy=".5" r="41" transform="matrix(.03441734 0 0 .03441734 32.720637 3.6516805)"/>
 </g>
</svg>
