<svg viewBox="0 0 24 24" xmlns="http://www.w3.org/2000/svg">
 <path d="m21 21v-16l-16 16" fill="#fdfdfd" fill-rule="evenodd"/>
 <path d="m20.03 11.76c-.265.013-.458.041-.768.206-.31.165-.568.398-.775.697-.196.289-.342.685-.434 1.054-.097.388-.159.795-.119 1.193.061.605.145 1.279.538 1.743.384.455.894.806 1.596.806.114 0 .076-.007.076-.007v-3.339h1.906v4.571c-.227.083-.577.238-.88.305-.411.091-.744.129-1.258.129-.599 0-1.142-.103-1.627-.31-.475-.217-.883-.532-1.224-.945-.341-.424-.604-.945-.79-1.565-.186-.63-.219-1.059-.216-1.596.003-.603.046-1.17.263-1.79.217-.63.511-1.157.883-1.581.372-.424.811-.739 1.317-.945.506-.217.833-.241 1.263-.268.326-.021.654.027.977.078.262.042.558.114.775.186.217.072.393.15.527.232l.325.186-.496 1.519c-.227-.145-.506-.274-.837-.387-.345-.134-.678-.187-1.023-.17z" fill="#fdfdfd" transform="matrix(1.0495652 0 0 1.0495652 -13.138978 -7.8120389)"/>
</svg>
