<svg viewBox="0 0 24 24" xmlns="http://www.w3.org/2000/svg">
 <path d="m4 3c-.554 0-1 .446-1 1v6c0 .554.446 1 1 1h6c .554 0 1-.446 1-1v-6c0-.554-.446-1-1-1zm1 1h4c .554 0 1 .446 1 1v4c0 .554-.446 1-1 1h-4c-.554 0-1-.446-1-1v-4c0-.554.446-1 1-1z" fill="#fdfdfd"/>
 <path d="m14 3c-.554 0-1 .446-1 1v6c0 .554.446 1 1 1h6c .554 0 1-.446 1-1v-6c0-.554-.446-1-1-1zm1 1h4c .554 0 1 .446 1 1v4c0 .554-.446 1-1 1h-4c-.554 0-1-.446-1-1v-4c0-.554.446-1 1-1z" fill="#fdfdfd"/>
 <path d="m4 13c-.554 0-1 .446-1 1v6c0 .554.446 1 1 1h6c .554 0 1-.446 1-1v-6c0-.554-.446-1-1-1zm1 1h4c .554 0 1 .446 1 1v4c0 .554-.446 1-1 1h-4c-.554 0-1-.446-1-1v-4c0-.554.446-1 1-1z" fill="#fdfdfd"/>
 <path d="m14 13c-.554 0-1 .446-1 1v6c0 .554.446 1 1 1h6c .554 0 1-.446 1-1v-6c0-.554-.446-1-1-1zm1 1h4c .554 0 1 .446 1 1v4c0 .554-.446 1-1 1h-4c-.554 0-1-.446-1-1v-4c0-.554.446-1 1-1z" fill="#fdfdfd"/>
</svg>
