<svg viewBox="0 0 24 24" xmlns="http://www.w3.org/2000/svg">
 <rect fill="#fdfdfd" height="12" rx=".5" ry=".429" width="4" x="4" y="6"/>
 <path d="m9.447 6c-.248 0-.447.327-.447.734v10.531c0 .407.199.734.447.734h4.553a6 6 0 0 0 6-6 6 6 0 0 0 -6-6h-4.553m4.826 2.207c1.589 0 3.01.899 3.643 2.285l.84-.324-.689 2.393-2.283-1.271.883-.346c-.428-.904-1.348-1.465-2.393-1.465-1.085 0-2.066.649-2.457 1.617l-1.229-.475c.583-1.451 2.059-2.414 3.686-2.414zm-3.793 3.254l2.285 1.229-.885.346c.423.9 1.355 1.486 2.393 1.486 1.087 0 2.054-.629 2.457-1.596l1.229.475c-.605 1.45-2.055 2.393-3.686 2.393-1.581 0-3.03-.924-3.643-2.307l-.84.303.689-2.328z" fill="#fdfdfd"/>
</svg>
