<svg viewBox="0 0 24 24" xmlns="http://www.w3.org/2000/svg">
 <rect fill="#353535" height="12" rx=".5" ry=".429" width="4" x="4" y="6"/>
 <path d="m9.447 6c-.248 0-.447.327-.447.734v10.531c0 .407.199.734.447.734h4.553a6 6 0 0 0 6-6 6 6 0 0 0 -6-6h-4.553m3.037 1.518l2.328.689-1.229 2.285-.344-.885c-.9.423-1.488 1.355-1.488 2.393 0 1.087.629 2.054 1.596 2.457l-.475 1.229c-1.45-.605-2.393-2.055-2.393-3.686 0-1.581.924-3.03 2.307-3.643l-.303-.84m3.168.797c1.451.583 2.414 2.059 2.414 3.686 0 1.589-.897 3.01-2.283 3.643l.322.84-2.393-.689 1.271-2.285.346.885c.904-.428 1.465-1.348 1.465-2.393 0-1.085-.647-2.066-1.615-2.457l.473-1.229z" fill="#353535"/>
</svg>
