<svg height="24" viewBox="0 0 6.77 6.77" width="24" xmlns="http://www.w3.org/2000/svg">
 <path d="m3.07 5.64c-.017-.004-.025-.007-.018-.008.007-.001-.002-.007-.02-.014-.11-.039-.171-.132-.164-.248.006-.09.09-.243.2-.361.021-.023.041-.041.046-.041.011 0 .116.128.155.189.046.072.081.152.088.201.016.108-.072.241-.173.261-.019.004-.024.008-.015.013.008.005.005.008-.01.008-.012 0-.03.002-.04.004-.01.002-.032 0-.049-.003zm.885.002c-.022-.003-.027-.006-.018-.012.01-.007.01-.008-.003-.008-.026 0-.08-.032-.114-.068-.052-.055-.065-.087-.065-.167 0-.059.004-.079.024-.123.034-.074.111-.186.169-.248l.049-.053.044.048c.099.108.19.268.2.351.009.073-.015.138-.072.194-.034.034-.059.05-.088.058-.031.008-.037.012-.025.017.012.005.009.006-.011.007-.015 0-.035.002-.044.004-.01.002-.031.001-.048-.001zm.889 0c-.021-.002-.03-.006-.024-.01.007-.004-.003-.011-.026-.018-.053-.016-.125-.09-.145-.15-.024-.072-.016-.127.033-.226.039-.078.138-.218.183-.257l.02-.018.048.053c.059.064.135.177.168.248.032.07.035.175.005.23-.025.047-.093.107-.137.12-.023.007-.031.013-.023.018.008.005.004.007-.011.007-.012 0-.03.002-.04.003-.01.002-.033.001-.053-.001zm-1.88-.993c-.363-.044-.659-.301-.748-.653-.12-.474.158-.944.633-1.07.118-.031.304-.033.419-.004.082.021.201.072.271.117.044.028.07.033.07.013 0-.019-.133-.156-.206-.212-.035-.027-.096-.067-.135-.089-.071-.04-.215-.093-.256-.093-.031 0-.028-.015.022-.08.137-.183.354-.326.582-.386.119-.031.307-.038.436-.017.374.062.686.32.82.676.024.062.022.081-.007.081-.038 0-.129.029-.198.062-.083.04-.164.106-.227.185-.091.115-.092.157-.002.105.185-.108.417-.146.589-.097.327.093.546.381.546.719 0 .347-.219.63-.562.726l-.071.02-.96.001c-.528.001-.986-.002-1.017-.006zm-1.252-.79c-.047-.021-.066-.054-.065-.115 0-.093.056-.183.152-.245.045-.029.116-.053.127-.042.002.002-.004.041-.013.086-.009.045-.02.13-.023.188l-.006.105-.03.013c-.047.02-.109.024-.14.01zm.308-.738c-.095-.18-.123-.409-.073-.611.076-.309.317-.555.626-.636.07-.018.108-.023.206-.024.122-.001.179.007.283.04.065.021.162.067.193.093l.021.017-.061.033c-.033.018-.092.057-.131.086-.039.029-.079.059-.09.066-.017.013-.024.013-.072 0-.067-.017-.195-.018-.263 0-.152.038-.291.151-.356.288-.02.041-.041.096-.047.123-.015.065-.014.187.004.251l.014.052-.055.059c-.03.032-.08.093-.111.136-.031.042-.057.077-.058.077-.001 0-.014-.023-.029-.051zm-.644-.251c-.055-.013-.128-.061-.147-.097-.009-.017-.017-.025-.017-.018 0 .007-.004.003-.008-.01-.008-.027-.002-.072.01-.065.004.003.008.001.008-.004 0-.019.049-.065.092-.087.036-.019.061-.024.126-.027.106-.005.164.011.22.062.036.032.042.043.046.08.007.06-.023.102-.098.139-.046.023-.07.029-.126.031-.038.002-.086-.001-.106-.005zm.495-.897c-.12-.038-.225-.171-.225-.285 0-.082.038-.118.126-.118.133 0 .284.151.285.286.001.105-.074.151-.186.116zm1.654-.082c-.008-.02.005-.089.023-.132.025-.056.1-.132.162-.163.089-.045.183-.033.214.026.027.052.011.149-.035.208-.021.027-.023.028-.113.034-.05.003-.126.013-.169.022-.067.014-.079.015-.083.004zm-.796-.277c-.039-.024-.079-.098-.092-.17-.012-.07-.001-.154.028-.211.021-.041.067-.088.087-.088.013 0 .013-.001.002-.009-.009-.006 0-.009.035-.009.026 0 .045.002.042.006-.003.003.006.013.02.021.062.038.098.121.098.228 0 .098-.018.152-.07.205-.038.039-.046.044-.081.044-.023 0-.051-.007-.068-.017z" fill="#fdfdfd"/>
</svg>
