<svg viewBox="0 0 24 24" xmlns="http://www.w3.org/2000/svg">
 <path d="m12 4c-4.432 0-8 3.568-8 8 0 4.432 3.568 8 8 8 4.432 0 8-3.568 8-8 0-4.432-3.568-8-8-8m-3.531 3.438c.568-.053 1.145.408 1.438 1.125.018.041.048.081.063.125.077.228.119.467.125.688.003.11-.017.209-.031.313-.027.209-.068.395-.156.563-.089.166-.232.303-.375.406-.065.045-.144.096-.219.125-.084.032-.164.054-.25.063-.185.017-.351-.013-.531-.094-.083-.035-.14-.071-.219-.125-.166-.112-.306-.254-.438-.438-.058-.08-.139-.157-.188-.25-.004-.008.004-.023 0-.031-.052-.101-.086-.199-.125-.313-.017-.05-.019-.106-.031-.156-.006-.014-.025-.017-.031-.031-.214-.847.066-1.669.688-1.906.084-.032.195-.054.281-.063m6.25.375c.507-.076 1.045.296 1.313.906.077.174.14.359.156.531.01.137-.007.281-.031.406-.017.092-.058.169-.094.25-.004.009.004.023 0 .031-.035.075-.075.156-.125.219-.018.022-.042.042-.063.063-.029.029-.061.038-.094.063-.058.046-.117.095-.188.125-.128.054-.269.07-.406.063-.01-.001-.021.001-.031 0-.138-.012-.274-.058-.406-.125-.007-.004-.024.004-.031 0-.14-.076-.258-.183-.375-.313-.117-.129-.205-.294-.281-.469-.078-.177-.141-.354-.156-.531-.01-.114-.015-.238 0-.344.002.021.028.041.031.063.044-.391.232-.734.563-.875.069-.029.146-.052.219-.063m.344.563c-.315 0-.594.247-.594.563 0 .316.278.594.594.594.315 0 .563-.278.563-.594 0-.316-.247-.563-.563-.563zm-6.06.188c-.099-.005-.214.027-.313.063-.396.142-.58.573-.438.969.142.396.573.611.969.469.396-.142.58-.604.438-1-.107-.297-.36-.484-.656-.5m6.125.344c.079 0 .156.077.156.156 0 .079-.077.125-.156.125-.079 0-.125-.046-.125-.125 0-.079.046-.156.125-.156m-6.06.344c.099-.036.183-.005.219.094.036.099.005.214-.094.25-.099.036-.214-.026-.25-.125-.036-.099.026-.183.125-.219m2.875 1.594c.031-.001.039.029.063.031.019-.002.038-.032.063-.031.176.005.505.119 1.063.625.744.674.781 1.281.781 1.281-.119.06-.253.164-.375.281-.333 1.172-.618 1.625-1.531 1.625-.979 0-1.44-.514-1.563-1.656-.11-.099-.232-.194-.344-.25 0 0 .038-.607.781-1.281.558-.506.886-.62 1.063-.625z" fill="#fdfdfd" fill-rule="evenodd"/>
</svg>
