<svg viewBox="0 0 24 24" xmlns="http://www.w3.org/2000/svg">
 <path d="m9.09 8.594c-2.957 0-5.342 2.385-5.342 5.343 0 .122-.007.254 0 .376-1.042.501-1.751 1.522-1.751 2.686 0 1.672 1.446 3 3.251 3h13.498c1.805 0 3.251-1.329 3.251-3 0-1.239-.788-2.317-1.937-2.779.029-.19.029-.369.029-.562 0-2.124-1.722-3.846-3.842-3.846-1.067 0-2.023.426-2.718 1.124-.967-1.418-2.596-2.342-4.44-2.342m-2.216 1.626c.576 0 1.06.448 1.06.999 0 .551-.483.999-1.06.999-.58 0-1.031-.448-1.031-.999 0-.551.451-.999 1.031-.999zm5.091.781l3.03 4.405h-1.844v3.595h-2.438v-3.595h-1.719z" fill="#fdfdfd"/>
 <path d="m18.387 9.733l-.401-.38-.541.115.236-.498-.279-.48.551.072.369-.412.1.544.505.222-.483.265z" fill="#fdfdfd"/>
 <path d="m18.831 8.723l.021-.258-.201-.165.251-.061.093-.24.136.222.258.014-.168.197.064.251-.236-.1z" fill="#fdfdfd"/>
 <path d="m19.07 10.224l-.05-.39-.351-.183.362-.168.064-.39.269.29.39-.061-.19.347.175.355-.387-.075z" fill="#fdfdfd"/>
</svg>
