<svg viewBox="0 0 24 24" xmlns="http://www.w3.org/2000/svg">
 <path d="m11.75 6c1.716.002 3.349.739 4.486 2.023.087-.016.175-.023.264-.023.828 0 1.5.672 1.5 1.5-.001.394-.157.773-.434 1.053.12.473.182.959.184 1.447-.003 1.279-.414 2.524-1.174 3.553.114.215.173.454.174.697 0 .828-.672 1.5-1.5 1.5-.342 0-.673-.118-.939-.332-.8.381-1.675.58-2.561.582-2.142-.002-4.121-1.146-5.191-3-.02.001-.039.002-.059.002-.828 0-1.5-.672-1.5-1.5.001-.539.291-1.035.76-1.301-.004-.066-.008-.133-.01-.199 0-3.314 2.686-6 6-6zm0 1c-2.761 0-5 2.239-5 5v .021c.453.078.845.358 1.064.762l3.461-.553c.13-.712.75-1.23 1.475-1.23.28 0 .554.079.791.227l1.543-1.234c-.055-.158-.084-.325-.084-.492 0-.353.125-.695.352-.965-.942-.98-2.243-1.534-3.602-1.535zm3.959 3.773l-1.543 1.234c.055.158.084.325.084.492-.001.324-.106.639-.301.898l.934 1.398c.12-.03.243-.046.367-.046.203 0 .404.041.59.121.591-.841.909-1.843.91-2.871-.002-.339-.038-.676-.107-1.01-.047.005-.095.008-.143.008-.28 0-.554-.079-.791-.227zm-4.273 2.443l-3.461.555c-.061.328-.229.626-.479.848.909 1.478 2.519 2.379 4.254 2.381.701-.002 1.394-.152 2.033-.439-.022-.102-.033-.206-.033-.311.001-.324.106-.639.301-.898l-.934-1.398c-.12.031-.243.046-.367.047-.548-.001-1.052-.301-1.315-.783z" fill="#fdfdfd" transform="matrix(-1.0825309 -.6249995 .6249995 -1.0825309 17.222004 32.338092)"/>
</svg>
