<svg viewBox="0 0 24 24" xmlns="http://www.w3.org/2000/svg">
 <path d="m7.156 5.125c-.739 0-1.344.635-1.344 1.406 0 .299.097.585.25.813-.518.344-.904.878-1.094 1.5-.092-.011-.186-.031-.281-.031-1.354 0-2.438 1.149-2.438 2.563 0 1.413 1.083 2.563 2.438 2.563.577 0 1.112-.214 1.531-.563.256.347.641.594 1.094.594.623 0 1.13-.445 1.313-1.031.047.048.106.08.156.125v-.906h-.469c-.643 0-1.289-.108-1.844-.594h-.031c-.449-.407-.719-1.069-.719-1.656 0-.578.273-1.223.719-1.625.492-.445 1.078-.507 1.656-.531v-.594-1.875c-.029.053-.068.101-.094.156-.23-.195-.524-.313-.844-.313m5.781.875v1.156c0 .258.004.434 0 .594h.281v1.125 4.156c.027-.025.067-.036.094-.063.486.624 1.231 1.031 2.063 1.031.717 0 1.367-.299 1.844-.781.255.368.657.594 1.125.594.775 0 1.406-.629 1.406-1.438 0-.808-.632-1.469-1.406-1.469-.12 0-.233.002-.344.031-.143-1.387-1.258-2.469-2.625-2.469-.011 0-.021 0-.031 0-.046-1.349-1.109-2.436-2.406-2.469" fill="#fdfdfd" transform="matrix(1.00000001 0 0 .99999999 .99999977 2.00000003)"/>
 <path d="m9 19v-2h2v-4h-2v-2h4v6h2v2z" fill="#fdfdfd"/>
 <path d="m11 8v2h2v-2z" fill="#fdfdfd"/>
</svg>
