<svg viewBox="0 0 24 24" xmlns="http://www.w3.org/2000/svg">
 <path d="m10.188 4c-.779 0-1.461.377-1.906.969h1.656c.262 0 .5.238.5.5v8.406c.181.031.374.063.563.063.183 0 .357-.033.531-.063v-8.406c0-.252.218-.484.469-.5.021-.001.042-.001.063 0h .031c-.45-.589-1.126-.969-1.906-.969m-4.156 1.75c-.145.225-.219.492-.219.781 0 .274.087.533.219.75zm0 1.625c-.5.345-.877.861-1.063 1.469-.092-.011-.186-.031-.281-.031-1.354 0-2.438 1.149-2.438 2.563 0 1.413 1.083 2.563 2.438 2.563.501 0 .955-.167 1.344-.438zm9.938 1.188v5.344c.479-.115.909-.343 1.25-.688.255.368.657.594 1.125.594.775 0 1.406-.629 1.406-1.438 0-.808-.632-1.469-1.406-1.469-.12 0-.233.002-.344.031-.121-1.178-.948-2.113-2.031-2.375z" fill="#fdfdfd" transform="matrix(1.00000001 0 0 .99999999 .99999977 2.00000003)"/>
 <g fill="#fdfdfd" transform="translate(.74989721 2)">
  <path d="m7.268 5.969h2.433v10.06h-2.433z"/>
  <path d="m12.799 5.969h2.433v10.06h-2.433z"/>
 </g>
</svg>
