<svg viewBox="0 0 24 24" xmlns="http://www.w3.org/2000/svg">
 <path d="m10.188 4c-.967 0-1.788.589-2.188 1.438-.23-.195-.524-.313-.844-.313-.739 0-1.344.635-1.344 1.406 0 .299.097.585.25.813-.518.344-.904.878-1.094 1.5-.092-.011-.186-.031-.281-.031-1.354 0-2.438 1.149-2.438 2.563 0 1.413 1.083 2.563 2.438 2.563.433 0 .833-.105 1.188-.313-.402-.785-.625-1.682-.625-2.625 0-3.176 2.574-5.75 5.75-5.75.475 0 .933.079 1.375.188-.397-.854-1.215-1.438-2.188-1.438m6.06 4.625c.326.722.5 1.531.5 2.375 0 1.059-.282 2.054-.781 2.906.479-.115.909-.343 1.25-.688.255.368.657.594 1.125.594.775 0 1.406-.629 1.406-1.438 0-.808-.632-1.469-1.406-1.469-.12 0-.233.002-.344.031-.111-1.075-.806-1.966-1.75-2.313" fill="#fdfdfd" transform="matrix(1.00000001 0 0 .99999999 .99999977 2.00025003)"/>
 <path d="m12 8.407c-2.528 0-4.594 2.066-4.594 4.594 0 1.311.549 2.504 1.437 3.344l1.625-1.375c-.59-.46-1-1.155-1-1.969 0-1.404 1.127-2.531 2.531-2.531.317 0 .627.051.906.156l.375-2c-.408-.12-.835-.219-1.281-.219m3.156 1.25l-1.625 1.375c.592.462 1 1.155 1 1.969 0 1.404-1.127 2.531-2.531 2.531-.318 0-.627-.082-.906-.188l-.375 2.063c.407.119.837.188 1.281.188 2.528 0 4.594-2.066 4.594-4.594 0-1.311-.55-2.505-1.438-3.344z" fill="#fdfdfd"/>
</svg>
