<svg viewBox="0 0 24 24" xmlns="http://www.w3.org/2000/svg">
 <g transform="translate(0 -104)">
  <path d="m12.81 109.7c-.549.001-1.156.046-1.826.133-.755.097-1.596.245-2.52.445-.825.189-1.608.398-2.35.625-.727.222-1.419.468-2.076.744-1.315.541-1.993.984-2.035 1.33-.042.357.272.561.943.609.35.027.77.012 1.26-.049.168-.016 1.045-.131 1.045-.158 0-.032-.001 0-.635-.24-.226-.086-.269-.081-.396-.139-.068-.031-.157-.047-.195-.111-.019-.031-.044-.066-.002-.109.32-.33 2.32-.991 2.762-1.119.741-.216.769-.216 1.65-.416 1.748-.378 2.689-.613 3.654-.592 1.021.032 1.307.028 1.307.477-.031.222-.135.324-.24.465-.601.735-2.146 1.605-5.545 3.768-.028.027-.056.051-.084.072-.014.016-.021.033-.021.049 0 .059 1.765.412 1.947.412.196 0 .37-.043.523-.129.21-.135.503-.304.881-.504.392-.2.604-.324 1.178-.605.685-.335 1.369-.65 2.055-.941.685-.292 1.386-.571 2.1-.836 1.762-.632 1.953-.676 2.736-.842.391-.083.425-.088.635-.088.322 0 .433.005.482.17.037.123-.077.195-.23.309 0 0-1.69 1.084-2.492 1.688-.319.24-.622.501-.92.768-.016.014-.031.03-.047.045l.52.52 4.215-3.793.434.578c.154-.114.298-.237.414-.391.038-.05.058-.115.063-.178.006-.074-.004-.157-.041-.221-.074-.128-.208-.213-.336-.285-.135-.076-.289-.118-.441-.145-.165-.029-.308-.032-.504-.016-1.231.076-2.978.543-5.244 1.402-.839.314-1.609.616-2.309.908-.685.292-1.315.578-1.889.859-.126.086-.236.131-.334.131-.056 0-.084-.013-.084-.033 0-.038.049-.087.146-.146 1.119-.724 1.994-1.335 2.623-1.832.643-.503 1.062-.9 1.258-1.191.07-.124.105-.249.105-.373 0-.286-.161-.516-.482-.689-.35-.211-.832-.321-1.447-.332-.068-.001-.139-.002-.209-.002zm-.422 9.723c-.754.37-2.221.998-3.785 2.887 2.665-1.226 2.748-1.421 4.195-2.086.23.208.229.207.23.207.157.119.341.149.527.16l-1.168-1.168z" fill="#3370d0" fill-rule="evenodd"/>
  <path d="m7.7 12.3l11-9.9 3.3 4.4-14.3 13.2-7.69999999-7.7 3.29999999-4.4z" fill="#4db147" transform="matrix(.36363636 0 0 .36363636 13.999804 113.72758)"/>
 </g>
</svg>
