<svg height="24" viewBox="0 0 6.77 6.77" width="24" xmlns="http://www.w3.org/2000/svg">
 <path d="m1.693 3.387l.847-.847v.564h1.693v-.564l.847.847-.847.847v-.564h-1.693v.564z" fill="#fdfdfd" fill-rule="evenodd"/>
 <path d="m6.241-.282h2.258v.564h-2.258z" fill="#fdfdfd" transform="matrix(.70710678 .70710678 -.70710678 .70710678 0 0)"/>
 <path d="m-1.129-7.652h2.258v.564h-2.258z" fill="#fdfdfd" transform="matrix(-.70710678 .70710678 -.70710678 -.70710678 0 0)"/>
 <path d="m3.386.847c-1.399 0-2.539 1.139-2.539 2.539 0 1.399 1.139 2.541 2.539 2.541.11 0 .218-.008.324-.021l-.095-.094.6-.6-.022-.021c-.246.11-.519.173-.807.173-1.094 0-1.974-.882-1.974-1.977 0-1.094.88-1.974 1.974-1.974 1.094 0 1.977.88 1.977 1.974 0 .288-.063.561-.173.807l.021.022.6-.6.094.094c.014-.106.021-.214.021-.324 0-1.399-1.142-2.539-2.541-2.539z" fill="#fdfdfd"/>
</svg>
