<svg viewBox="0 0 24 24" xmlns="http://www.w3.org/2000/svg">
 <path d="m6.5 4c-1.376 0-2.5 1.124-2.5 2.5v11c0 1.376 1.124 2.5 2.5 2.5h11c1.376 0 2.5-1.124 2.5-2.5v-11c0-1.376-1.124-2.5-2.5-2.5zm0 1h11c .84 0 1.5.66 1.5 1.5v11c0 .84-.66 1.5-1.5 1.5h-11c-.84 0-1.5-.66-1.5-1.5v-11c0-.84.66-1.5 1.5-1.5" fill="#fdfdfd"/>
 <path d="m4 15h16v1h-16z" fill="#fdfdfd"/>
 <path d="m15-13h5v2h-5z" fill="#fdfdfd" transform="rotate(90)"/>
 <path d="m8 6h1c .01 0 .021 0 .031 0 .255.011.51.129.687.312l2.28 2.279 2.311-2.279c.266-.23.447-.3.688-.31h1v1c0 .286-.034.55-.25.75l-2.28 2.28 2.249 2.249c.188.19.281.45.281.72v1h-1c-.265 0-.53-.093-.719-.281l-2.28-2.279-2.28 2.279c-.188.19-.454.28-.719.28h-1v-1c0-.265.093-.53.281-.718l2.28-2.249-2.28-2.279c-.21-.19-.303-.47-.281-.75v-1z" fill="#ef555c"/>
</svg>
