<svg viewBox="0 0 24 24" xmlns="http://www.w3.org/2000/svg">
 <g fill="#b2d863" transform="translate(4 4)">
  <path d="m11 3c-4.418 0-8 3.134-8 7 0 3.866 3.582 7 8 7 4.418 0 8-3.134 8-7 0-3.866-3.582-7-8-7m-4 6c .552 0 1 .448 1 1 0 .552-.448 1-1 1-.552 0-1-.448-1-1 0-.552.448-1 1-1zm4 0c .552 0 1 .448 1 1 0 .552-.448 1-1 1-.552 0-1-.448-1-1 0-.552.448-1 1-1zm4 0c .552 0 1 .448 1 1 0 .552-.448 1-1 1-.552 0-1-.448-1-1 0-.552.448-1 1-1z" transform="translate(-3 -3)"/>
  <path d="m8.336 12l5.664 4-1-6"/>
 </g>
</svg>
