<svg viewBox="0 0 24 24" xmlns="http://www.w3.org/2000/svg">
 <path d="m9.1 6.5c-.155-.001-.318.007-.487.029-2.692.348-2.609 2.668-2.609 2.668-1.103.188-2 1.155-2 2.165 0 1.01 1.152 1.905 2.118 2.165.574.155 1.328 0 1.328 0 .157.278.477.514.856.686.222-.405.554-.745.978-.933.47-1.128 1.592-2.114 2.879-2.035.943-.051 1.862.433 2.458 1.16 1.096-.362 2.716-.082 3.186 1.145.313-.065.622-.041.912.048.103-.021.189-.045.26-.072 1.599-.619 1.102-2.555.038-3.209-1.064-.654-2.458-.193-2.458-.193 0 0-.003-1.331-1.508-1.967-1.505-.636-2.779.768-2.779.768 0 0-.839-2.412-3.167-2.426zm3.158 5.674c-.103-.001-.214.005-.326.019-1.794.231-1.74 1.769-1.74 1.769-.735.125-1.333.765-1.333 1.435 0 .67.765 1.263 1.409 1.435.383.103.884 0 .884 0 .227.4.976.667 1.498.667.852 0 1.727-.282 1.929-.667 0 0 3.527.282 4.259 0 1.066-.411.733-1.693.024-2.127-.709-.434-1.636-.13-1.636-.13 0 0-.004-.883-1.01-1.305-1-.422-1.848.512-1.848.512 0 0-.562-1.6-2.113-1.609z" fill="#fdfdfd"/>
</svg>
