<svg viewBox="0 0 24 24" xmlns="http://www.w3.org/2000/svg">
 <path d="m12.469 4c-4.266 0-7.719 3.582-7.719 8 0 .864.13 1.689.375 2.469.248-.199.518-.389.813-.531.045-.305-.018-.402.188-.813.419-.836 1.43-1.741 2.938-1.938.208-.027.412-.032.594-.031.677.004 1.223.172 1.688.406.158-3.02 1.901-5.594 4.406-6.813-.995-.484-2.109-.75-3.281-.75" fill="#fdfdfd"/>
 <path d="m9.647 12.398c-.133-.001-.272.006-.417.025-2.304.301-2.233 2.306-2.233 2.306-.944.163-1.715.998-1.715 1.872 0 .873.986 1.647 1.813 1.872.491.134 1.137 0 1.137 0 .134.24.408.444.732.593.19-.35.474-.644.838-.806.402-.975 1.363-1.828 2.464-1.759.807-.044 1.593.374 2.104 1 .938-.313 2.324-.071 2.727.99.268-.056.533-.035.781.042.088-.018.162-.039.223-.063 1.369-.535.943-2.209.032-2.774-.911-.565-2.104-.167-2.104-.167 0 0-.003-1.15-1.291-1.7-1.288-.55-2.379.664-2.379.664 0 0-.718-2.085-2.711-2.097zm2.703 4.905c-.089-.001-.183.004-.279.017-1.536.199-1.489 1.529-1.489 1.529-.629.108-1.141.662-1.141 1.241 0 .579.655 1.092 1.206 1.241.328.089.757 0 .757 0 .194.346.836.577 1.283.577.729 0 1.478-.244 1.651-.577 0 0 3.02.244 3.645 0 .912-.355.627-1.463.02-1.838-.607-.375-1.4-.113-1.4-.113 0 0-.003-.763-.862-1.128-.858-.365-1.582.443-1.582.443 0 0-.481-1.383-1.809-1.391z" fill="#fdfdfd"/>
</svg>
