<svg viewBox="0 0 24 24" xmlns="http://www.w3.org/2000/svg">
 <path d="m9.185 4.5c-.154-.001-.311.007-.478.03-2.67.358-2.588 2.745-2.588 2.745-1.094.194-1.988 1.188-1.988 2.228 0 1.039 1.143 1.96 2.1 2.228.57.159 1.313 0 1.313 0 .338.621 1.454 1.034 2.232 1.034 1.268 0 2.564-.438 2.865-1.034 0 0 5.254.438 6.343 0 1.586-.637 1.093-2.629.038-3.302-1.055-.673-2.438-.199-2.438-.199 0 0-.008-1.369-1.5-2.024-1.492-.655-2.752.791-2.752.791 0 0-.837-2.481-3.146-2.496z" fill="#fdfdfd"/>
 <circle cx="16.847" cy="13.424" fill="#fdfdfd" r="1"/>
 <circle cx="12.322" cy="18.5" fill="#fdfdfd" r="1"/>
 <circle cx="17.61" cy="17.61" fill="#fdfdfd" r="1"/>
 <circle cx="11.07" cy="14.763" fill="#fdfdfd" r="1"/>
 <circle cx="6.831" cy="13.542" fill="#fdfdfd" r="1"/>
 <circle cx="8.05" cy="16.763" fill="#fdfdfd" r="1"/>
 <circle cx="14.627" cy="15.814" fill="#fdfdfd" r="1"/>
</svg>
