<svg viewBox="0 0 24 24" xmlns="http://www.w3.org/2000/svg">
 <path d="m10.431 4c-.239 1.98-1.381 2.446-2.944 1.212.537 1.92-.34 2.785-2.256 2.244 1.231 1.569.752 2.698-1.225 2.931 1.737.978 1.731 2.209-.006 3.181 1.98.239 2.446 1.381 1.212 2.944 1.92-.537 2.785.34 2.244 2.256 1.569-1.231 2.698-.752 2.931 1.225.978-1.738 2.209-1.731 3.181.006.239-1.98 1.381-2.446 2.944-1.212-.537-1.92.34-2.785 2.256-2.244-1.231-1.569-.752-2.698 1.225-2.931-1.738-.978-1.731-2.209.006-3.181-1.98-.239-2.446-1.381-1.213-2.944-1.92.537-2.785-.34-2.244-2.256-1.569 1.231-2.698.752-2.931-1.225-.978 1.737-2.209 1.731-3.181-.006z" fill="#dedc3f"/>
</svg>
