<svg viewBox="0 0 24 24" xmlns="http://www.w3.org/2000/svg">
 <path d="m12 7.25c-1.787 0-3.376.951-4.252 2.369l.377.145c.819-1.315 2.264-2.17 3.875-2.17 1.187 0 2.291.44 3.123 1.193.166-.022.326-.04.488-.059-.172-.171-.355-.328-.551-.473-.127-.059-.26-.106-.385-.17-.301-.153-.526-.305-.879-.508-.563-.206-1.165-.328-1.797-.328m0 1.844c-.837 0-1.617.335-2.182.877.373-.115.751-.227 1.139-.332.627-.17 1.239-.31 1.844-.439-.256-.063-.521-.105-.801-.105m7.262.307l-1.184 4.111.254.098-.297.709c-.011.027-.028.05-.039.076 2.637-1.275 4.248-2.693 3.971-3.74-.179-.68-1.151-1.116-2.705-1.254m-3.041.055c-.146.014-.302.039-.451.057.14.2.268.409.375.635l.346.729-.547.213 1.096.611.322-1.115-.471.182-.293-.643c-.107-.235-.235-.456-.377-.668m-2.242.328c-.905.165-1.829.362-2.764.615-.735.199-1.438.419-2.115.65l-.238.588 2.734 1.471-1.934.756c.567.643 1.411 1.043 2.338 1.043 1.287 0 2.405-.737 2.869-1.852l.281-.674.102.039-2.822-1.57 1.904-.744c-.107-.12-.231-.221-.355-.322m-7.02 2.533l-.316 1.07.48-.172.283.635c.664 1.488 2.122 2.569 3.799 2.834.425-.094.854-.196 1.291-.311-.163.018-.325.033-.492.033-1.788 0-3.408-1.013-4.148-2.588l-.342-.727.516-.201-1.07-.574m-1.672.365c-2.195 1.173-3.505 2.421-3.254 3.367.311 1.178 2.921 1.552 6.414 1.115-.818-.541-1.518-1.252-2.025-2.104l-2.059.738.924-3.117zm10.584 1.584c-.462.728-1.118 1.301-1.883 1.674.451-.14.889-.282 1.314-.434.362-.318.684-.683.943-1.096l-.375-.145z" fill="#fdfdfd" fill-opacity=".941"/>
 <path d="m-25.406 14.5c2.304 0 4.367 1.303 5.281 3.313l1.219-.469-1 3.469-3.313-1.844 1.281-.5c-.621-1.31-1.954-2.125-3.469-2.125-1.573 0-2.996.94-3.563 2.344l-1.781-.688c.845-2.104 2.985-3.5 5.344-3.5zm-5.5 4.719l3.313 1.781-1.281.5c.613 1.305 1.964 2.156 3.469 2.156 1.576 0 2.979-.91 3.563-2.313l1.781.688c-.877 2.103-2.979 3.469-5.344 3.469-2.292 0-4.387-1.339-5.281-3.344l-1.219.438z" fill="#fdfdfd" transform="matrix(1.00000001 0 0 1.00000001 37.40561981 -8.00000022)"/>
</svg>
