<svg viewBox="0 0 512 512" xmlns="http://www.w3.org/2000/svg" xmlns:xlink="http://www.w3.org/1999/xlink">
 <defs>
  <path id="a" d="m9.639 9v14.1c.216.319.431.517.756.629h12.11l-3.428-3.447h-6l-.004-7.863h7.797v6.152l3.492 3.492v-12.11c-.116-.653-.502-.865-.959-.961h-13.764m18.355 5.04c-.457.097-.845.307-.961.961l-.006 6.875 3.369-3.369v-1.109h3l-.004 2.986h-1.111l-3.654 3.301h7.359c.34-.066.562-.196.756-.582v-9.06h-8.75m-15.518 12.221c-.34.066-.563.196-.758.582v12.16h11.684c.457-.096.843-.307.959-.961l.008-9.918-3.369 3.367v4.086h-5.984l.004-5.955h4.221l3.428-3.361h-10.191m16.15 0l3.428 3.361h2.932l.004 4.658h-4.596v-2.789l-3.369-3.367.006 8.553c.116.653.504.865.961.961h10.367v-10.795c-.194-.386-.418-.516-.758-.582z"/>
 </defs>
 <text x="-109.95" y="148.92">
  
 </text>
 <text x="471.32" y="68.92">
  
 </text>
 <text x="-600.26" y="-112.34">
  
 </text>
 <text x="497.79" y="-328.81">
  
 </text>
 <text x="1079.06" y="-408.82">
  
 </text>
 <text x="689.94" y="-881.22">
  
 </text>
 <text x="1271.2" y="-961.22">
  
 </text>
 <text x="-561.6" y="453.5">
  
 </text>
 <path d="m36.06 0c-5.63 0-10.156 4.527-10.156 10.156v491.69c0 5.63 4.527 10.156 10.156 10.156h439.88c5.63 0 10.156-4.527 10.156-10.156v-334.09l-167.75-167.75h-282.28" opacity=".1"/>
 <path d="m39.06 3.5c-5.553 0-10.03 4.479-10.03 10.03v484.94c0 5.553 4.479 10.03 10.03 10.03h433.88c5.553 0 10.03-4.479 10.03-10.03v-327.84l-167.12-167.12h-276.78" opacity=".1"/>
 <path d="m42.06 7c-5.476 0-9.875 4.399-9.875 9.875v478.25c0 5.476 4.399 9.875 9.875 9.875h427.88c5.476 0 9.875-4.399 9.875-9.875v-321.66l-166.47-166.47h-271.28" opacity=".1"/>
 <path d="m45.06 10.5c-5.399 0-9.719 4.351-9.719 9.75v471.5c0 5.399 4.32 9.75 9.719 9.75h421.88c5.399 0 9.719-4.351 9.719-9.75v-315.44l-165.81-165.81h-265.78" fill="#ed6f1e"/>
 <path id="b" d="m476.66 176.31l-165.81-165.81v156.06c0 5.399 4.32 9.75 9.719 9.75h156.09" fill="#ffffff" fill-opacity=".196"/>
 <use xlink:href="#b"/>
 <path d="m316.59 175.47c11.7 11.761 23.675 23.799 35.594 35.781-.729-.018-1.454-.031-2.188-.031-.168 0-.333-.001-.5 0v24l-12-12c-43.06.236-78.974 30.747-87.44 71.34l-61.19-61.19c-1.779-1.779-3.792-3.342-6-4.688-6.734-4.01-14.6-5.469-30.31-5.469h-29.344v118.5l10.688 10.688h-49.719v32.31l64.38 64.38h-31.22v1.063l-33.16-33.16c.874 10.962-1.709 23.345 1.188 33.469l51.03 51.03h330.53c5.399 0 9.719-4.351 9.719-9.75v-315.43h-156.09c-1.422 0-2.756-.3-3.969-.844" opacity=".25"/>
 <text x="-990.51" y="-43.58">
  
 </text>
 <text x="-1638.27" y="-811.53">
  
 </text>
 <text x="-931.93" y="-967.16">
  
 </text>
 <text x="-34.02" y="244.38">
  
 </text>
 <text x="547.25" y="164.38">
  
 </text>
 <text x="-524.33" y="-16.88">
  
 </text>
 <text x="573.72" y="-233.35">
  
 </text>
 <text x="1154.99" y="-313.36">
  
 </text>
 <text x="765.87" y="-785.76">
  
 </text>
 <text x="1347.13" y="-865.76">
  
 </text>
 <text x="-485.67" y="548.96">
  
 </text>
 <text x="-394.98" y="-513.27">
  
 </text>
 <text x="-1042.75" y="-1281.22">
  
 </text>
 <text x="-336.41" y="-1436.85">
  
 </text>
 <use fill="#ffffff" transform="matrix(3.4309 0 0 3.4309 52.15 -.198)" xlink:href="#a"/>
 <text x="-583.55" y="-261.22">
  
 </text>
 <text x="-1231.31" y="-1029.18">
  
 </text>
 <text x="-524.97" y="-1184.81">
  
 </text>
 <use fill="#fff8eb" transform="matrix(2.88355 0 0 2.88355 -457.38 -639.69)" xlink:href="#a"/>
 <g transform="translate(137.94 -816.43)">
  <text x="729.64" y="231.36">
   
  </text>
  <text x="1310.91" y="151.36">
   
  </text>
  <text x="239.33" y="-29.9">
   
  </text>
  <text x="1337.38" y="-246.37">
   
  </text>
  <text x="1918.65" y="-326.37">
   
  </text>
  <text x="1529.53" y="-798.77">
   
  </text>
  <text x="2110.79" y="-878.78">
   
  </text>
  <text x="277.99" y="535.94">
   
  </text>
 </g>
 <text x="976.2" y="-314.49">
  
 </text>
 <text x="1557.47" y="-394.49">
  
 </text>
 <text x="485.89" y="-575.75">
  
 </text>
 <text x="1583.94" y="-792.22">
  
 </text>
 <text x="2165.21" y="-872.23">
  
 </text>
 <text x="1776.09" y="-1344.63">
  
 </text>
 <text x="2357.35" y="-1424.63">
  
 </text>
 <text x="524.55" y="-9.91">
  
 </text>
 <path id="c" d="m1562.8-287.1l-165.81-165.81v156.06c0 5.399 4.32 9.75 9.719 9.75h156.09" fill="#ffffff" fill-opacity=".196"/>
 <use xlink:href="#c"/>
 <text x="95.64" y="-506.98">
  
 </text>
 <text x="-552.12" y="-1274.93">
  
 </text>
 <text x="154.22" y="-1430.57">
  
 </text>
 <text x="1052.13" y="-219.03">
  
 </text>
 <text x="1633.4" y="-299.03">
  
 </text>
 <text x="561.82" y="-480.29">
  
 </text>
 <text x="1659.87" y="-696.76">
  
 </text>
 <text x="2241.14" y="-776.77">
  
 </text>
 <text x="1852.02" y="-1249.17">
  
 </text>
 <text x="2433.28" y="-1329.17">
  
 </text>
 <text x="600.48" y="85.55">
  
 </text>
 <text x="691.17" y="-976.68">
  
 </text>
 <text x="43.4" y="-1744.63">
  
 </text>
 <text x="749.74" y="-1900.26">
  
 </text>
 <use fill="#ffffff" transform="matrix(3.4309 0 0 3.4309 1138.3 -463.61)" xlink:href="#a"/>
 <text x="2095.2" y="-769.29">
  
 </text>
 <text x="2676.47" y="-849.29">
  
 </text>
 <text x="1604.89" y="-1030.55">
  
 </text>
 <text x="2702.94" y="-1247.02">
  
 </text>
 <text x="3284.21" y="-1327.03">
  
 </text>
 <text x="2895.09" y="-1799.43">
  
 </text>
 <text x="3476.36" y="-1879.43">
  
 </text>
 <text x="1643.55" y="-464.71">
  
 </text>
 <text x="1214.65" y="-961.79">
  
 </text>
 <text x="566.88" y="-1729.74">
  
 </text>
 <text x="1273.22" y="-1885.37">
  
 </text>
 <text x="1745.92" y="-600.07">
  
 </text>
 <text x="2327.19" y="-680.07">
  
 </text>
 <text x="1255.61" y="-861.33">
  
 </text>
 <text x="2353.66" y="-1077.8">
  
 </text>
 <text x="2934.93" y="-1157.81">
  
 </text>
 <text x="2545.81" y="-1630.21">
  
 </text>
 <text x="3127.07" y="-1710.21">
  
 </text>
 <text x="1294.27" y="-295.49">
  
 </text>
 <g fill-rule="evenodd">
  <path d="m349.5 211.22v90.28h90.31c.001-.178 0-.353 0-.531 0-49.592-40.22-89.75-89.81-89.75-.168 0-.333-.001-.5 0m-12 12c-49.36.27-89.31 40.33-89.31 89.75 0 49.592 40.22 89.81 89.81 89.81 49.41 0 89.53-39.934 89.81-89.28h-90.31z" fill="#ffffff"/>
  <path d="m84.19 449.28c129.58 129.64 259.32 259.38 388.91 388.91z" fill="#79c943"/>
  <g fill="#ffffff">
   <path d="m84.19 417v32.311h343.63v-32.31h-343.62"/>
   <path d="m84.19 352.41v32.31h142.94v-32.31z"/>
   <path d="m123.22 223.22v118.5h21.969v-45.06h7.06c16.835 0 24.52-1.273 31.09-5.281 9.62-5.932 15.563-17.965 15.563-31.594s-5.77-24.841-16.03-31.09c-6.734-4.01-14.6-5.469-30.31-5.469h-29.344m21.969 21h7.375c16.835 0 24.22 3.369 24.22 15.875 0 10.262-5.435 15.563-25.16 15.563h-6.438v-31.438"/>
  </g>
 </g>
</svg>
